<?xml version="1.0" encoding="UTF-8" standalone="no"?>
<!DOCTYPE svg PUBLIC "-//W3C//DTD SVG 1.1//EN"
 "http://www.w3.org/Graphics/SVG/1.1/DTD/svg11.dtd">
<!-- Generated by graphviz version 2.50.0 (0)
 -->
<!-- Title: snakemake_dag Pages: 1 -->
<svg width="494pt" height="404pt"
 viewBox="0.00 0.00 494.00 404.00" xmlns="http://www.w3.org/2000/svg" xmlns:xlink="http://www.w3.org/1999/xlink">
<g id="graph0" class="graph" transform="scale(1 1) rotate(0) translate(4 400)">
<title>snakemake_dag</title>
<polygon fill="white" stroke="transparent" points="-4,4 -4,-400 490,-400 490,4 -4,4"/>
<!-- 0 -->
<g id="node1" class="node">
<title>0</title>
<path fill="none" stroke="#70d856" stroke-width="2" stroke-dasharray="5,2" d="M266,-36C266,-36 214,-36 214,-36 208,-36 202,-30 202,-24 202,-24 202,-12 202,-12 202,-6 208,0 214,0 214,0 266,0 266,0 272,0 278,-6 278,-12 278,-12 278,-24 278,-24 278,-30 272,-36 266,-36"/>
<text text-anchor="middle" x="240" y="-15.5" font-family="sans" font-size="10.00">vcf_from_gdb</text>
</g>
<!-- 1 -->
<g id="node2" class="node">
<title>1</title>
<path fill="none" stroke="#afd856" stroke-width="2" stroke-dasharray="5,2" d="M281.5,-108C281.5,-108 198.5,-108 198.5,-108 192.5,-108 186.5,-102 186.5,-96 186.5,-96 186.5,-84 186.5,-84 186.5,-78 192.5,-72 198.5,-72 198.5,-72 281.5,-72 281.5,-72 287.5,-72 293.5,-78 293.5,-84 293.5,-84 293.5,-96 293.5,-96 293.5,-102 287.5,-108 281.5,-108"/>
<text text-anchor="middle" x="240" y="-87.5" font-family="sans" font-size="10.00">import_genomics_db</text>
</g>
<!-- 1&#45;&gt;0 -->
<g id="edge1" class="edge">
<title>1&#45;&gt;0</title>
<path fill="none" stroke="grey" stroke-width="2" d="M240,-71.7C240,-63.98 240,-54.71 240,-46.11"/>
<polygon fill="grey" stroke="grey" stroke-width="2" points="243.5,-46.1 240,-36.1 236.5,-46.1 243.5,-46.1"/>
</g>
<!-- 2 -->
<g id="node3" class="node">
<title>2</title>
<path fill="none" stroke="#56c9d8" stroke-width="2" stroke-dasharray="5,2" d="M175,-180C175,-180 129,-180 129,-180 123,-180 117,-174 117,-168 117,-168 117,-156 117,-156 117,-150 123,-144 129,-144 129,-144 175,-144 175,-144 181,-144 187,-150 187,-156 187,-156 187,-168 187,-168 187,-174 181,-180 175,-180"/>
<text text-anchor="middle" x="152" y="-159.5" font-family="sans" font-size="10.00">make_gvcfs</text>
</g>
<!-- 2&#45;&gt;1 -->
<g id="edge4" class="edge">
<title>2&#45;&gt;1</title>
<path fill="none" stroke="grey" stroke-width="2" d="M173.75,-143.7C184.84,-134.88 198.47,-124.03 210.49,-114.47"/>
<polygon fill="grey" stroke="grey" stroke-width="2" points="212.85,-117.07 218.5,-108.1 208.49,-111.59 212.85,-117.07"/>
</g>
<!-- 3 -->
<g id="node4" class="node">
<title>3</title>
<path fill="none" stroke="#d8cb56" stroke-width="2" stroke-dasharray="5,2" d="M76,-252C76,-252 12,-252 12,-252 6,-252 0,-246 0,-240 0,-240 0,-228 0,-228 0,-222 6,-216 12,-216 12,-216 76,-216 76,-216 82,-216 88,-222 88,-228 88,-228 88,-240 88,-240 88,-246 82,-252 76,-252"/>
<text text-anchor="middle" x="44" y="-231.5" font-family="sans" font-size="10.00">mark_duplicates</text>
</g>
<!-- 3&#45;&gt;2 -->
<g id="edge7" class="edge">
<title>3&#45;&gt;2</title>
<path fill="none" stroke="grey" stroke-width="2" d="M70.42,-215.88C84.41,-206.81 101.78,-195.55 116.89,-185.76"/>
<polygon fill="grey" stroke="grey" stroke-width="2" points="118.99,-188.57 125.48,-180.19 115.18,-182.69 118.99,-188.57"/>
</g>
<!-- 4 -->
<g id="node5" class="node">
<title>4</title>
<path fill="none" stroke="#d88d56" stroke-width="2" stroke-dasharray="5,2" d="M122.5,-324C122.5,-324 81.5,-324 81.5,-324 75.5,-324 69.5,-318 69.5,-312 69.5,-312 69.5,-300 69.5,-300 69.5,-294 75.5,-288 81.5,-288 81.5,-288 122.5,-288 122.5,-288 128.5,-288 134.5,-294 134.5,-300 134.5,-300 134.5,-312 134.5,-312 134.5,-318 128.5,-324 122.5,-324"/>
<text text-anchor="middle" x="102" y="-303.5" font-family="sans" font-size="10.00">map_reads</text>
</g>
<!-- 4&#45;&gt;3 -->
<g id="edge10" class="edge">
<title>4&#45;&gt;3</title>
<path fill="none" stroke="grey" stroke-width="2" d="M87.66,-287.7C80.71,-279.3 72.23,-269.07 64.6,-259.86"/>
<polygon fill="grey" stroke="grey" stroke-width="2" points="67.25,-257.57 58.17,-252.1 61.86,-262.04 67.25,-257.57"/>
</g>
<!-- 5 -->
<g id="node6" class="node">
<title>5</title>
<path fill="none" stroke="#d85656" stroke-width="2" stroke-dasharray="5,2" d="M121,-396C121,-396 83,-396 83,-396 77,-396 71,-390 71,-384 71,-384 71,-372 71,-372 71,-366 77,-360 83,-360 83,-360 121,-360 121,-360 127,-360 133,-366 133,-372 133,-372 133,-384 133,-384 133,-390 127,-396 121,-396"/>
<text text-anchor="middle" x="102" y="-381" font-family="sans" font-size="10.00">trim_reads</text>
<text text-anchor="middle" x="102" y="-370" font-family="sans" font-size="10.00">sample: A</text>
</g>
<!-- 5&#45;&gt;4 -->
<g id="edge11" class="edge">
<title>5&#45;&gt;4</title>
<path fill="none" stroke="grey" stroke-width="2" d="M102,-359.7C102,-351.98 102,-342.71 102,-334.11"/>
<polygon fill="grey" stroke="grey" stroke-width="2" points="105.5,-334.1 102,-324.1 98.5,-334.1 105.5,-334.1"/>
</g>
<!-- 6 -->
<g id="node7" class="node">
<title>6</title>
<path fill="none" stroke="#5692d8" stroke-width="2" stroke-dasharray="5,2" d="M300.5,-396C300.5,-396 261.5,-396 261.5,-396 255.5,-396 249.5,-390 249.5,-384 249.5,-384 249.5,-372 249.5,-372 249.5,-366 255.5,-360 261.5,-360 261.5,-360 300.5,-360 300.5,-360 306.5,-360 312.5,-366 312.5,-372 312.5,-372 312.5,-384 312.5,-384 312.5,-390 306.5,-396 300.5,-396"/>
<text text-anchor="middle" x="281" y="-375.5" font-family="sans" font-size="10.00">bwa_index</text>
</g>
<!-- 6&#45;&gt;4 -->
<g id="edge12" class="edge">
<title>6&#45;&gt;4</title>
<path fill="none" stroke="grey" stroke-width="2" d="M249.25,-363.74C246.13,-362.46 243.01,-361.2 240,-360 208.05,-347.24 171.73,-333.32 144.37,-322.94"/>
<polygon fill="grey" stroke="grey" stroke-width="2" points="145.31,-319.55 134.72,-319.29 142.83,-326.1 145.31,-319.55"/>
</g>
<!-- 11 -->
<g id="node12" class="node">
<title>11</title>
<path fill="none" stroke="#d88d56" stroke-width="2" stroke-dasharray="5,2" d="M260.5,-324C260.5,-324 219.5,-324 219.5,-324 213.5,-324 207.5,-318 207.5,-312 207.5,-312 207.5,-300 207.5,-300 207.5,-294 213.5,-288 219.5,-288 219.5,-288 260.5,-288 260.5,-288 266.5,-288 272.5,-294 272.5,-300 272.5,-300 272.5,-312 272.5,-312 272.5,-318 266.5,-324 260.5,-324"/>
<text text-anchor="middle" x="240" y="-303.5" font-family="sans" font-size="10.00">map_reads</text>
</g>
<!-- 6&#45;&gt;11 -->
<g id="edge18" class="edge">
<title>6&#45;&gt;11</title>
<path fill="none" stroke="grey" stroke-width="2" d="M270.87,-359.7C266.15,-351.64 260.44,-341.89 255.22,-332.98"/>
<polygon fill="grey" stroke="grey" stroke-width="2" points="258.09,-330.96 250.02,-324.1 252.05,-334.5 258.09,-330.96"/>
</g>
<!-- 15 -->
<g id="node16" class="node">
<title>15</title>
<path fill="none" stroke="#d88d56" stroke-width="2" stroke-dasharray="5,2" d="M383.5,-324C383.5,-324 342.5,-324 342.5,-324 336.5,-324 330.5,-318 330.5,-312 330.5,-312 330.5,-300 330.5,-300 330.5,-294 336.5,-288 342.5,-288 342.5,-288 383.5,-288 383.5,-288 389.5,-288 395.5,-294 395.5,-300 395.5,-300 395.5,-312 395.5,-312 395.5,-318 389.5,-324 383.5,-324"/>
<text text-anchor="middle" x="363" y="-303.5" font-family="sans" font-size="10.00">map_reads</text>
</g>
<!-- 6&#45;&gt;15 -->
<g id="edge24" class="edge">
<title>6&#45;&gt;15</title>
<path fill="none" stroke="grey" stroke-width="2" d="M301.27,-359.7C311.5,-350.97 324.06,-340.24 335.18,-330.75"/>
<polygon fill="grey" stroke="grey" stroke-width="2" points="337.63,-333.26 342.96,-324.1 333.09,-327.94 337.63,-333.26"/>
</g>
<!-- 7 -->
<g id="node8" class="node">
<title>7</title>
<path fill="none" stroke="#56d8a9" stroke-width="2" stroke-dasharray="5,2" d="M166,-252C166,-252 118,-252 118,-252 112,-252 106,-246 106,-240 106,-240 106,-228 106,-228 106,-222 112,-216 118,-216 118,-216 166,-216 166,-216 172,-216 178,-222 178,-228 178,-228 178,-240 178,-240 178,-246 172,-252 166,-252"/>
<text text-anchor="middle" x="142" y="-231.5" font-family="sans" font-size="10.00">genome_dict</text>
</g>
<!-- 7&#45;&gt;0 -->
<g id="edge3" class="edge">
<title>7&#45;&gt;0</title>
<path fill="none" stroke="grey" stroke-width="2" d="M127.25,-215.63C119.91,-205.85 111.81,-193.01 108,-180 103.5,-164.65 102.03,-158.85 108,-144 125.96,-99.3 169.44,-63.46 201.61,-41.81"/>
<polygon fill="grey" stroke="grey" stroke-width="2" points="203.91,-44.49 210.36,-36.09 200.07,-38.64 203.91,-44.49"/>
</g>
<!-- 7&#45;&gt;2 -->
<g id="edge8" class="edge">
<title>7&#45;&gt;2</title>
<path fill="none" stroke="grey" stroke-width="2" d="M144.47,-215.7C145.57,-207.98 146.9,-198.71 148.13,-190.11"/>
<polygon fill="grey" stroke="grey" stroke-width="2" points="151.61,-190.5 149.56,-180.1 144.68,-189.51 151.61,-190.5"/>
</g>
<!-- 9 -->
<g id="node10" class="node">
<title>9</title>
<path fill="none" stroke="#56c9d8" stroke-width="2" stroke-dasharray="5,2" d="M263,-180C263,-180 217,-180 217,-180 211,-180 205,-174 205,-168 205,-168 205,-156 205,-156 205,-150 211,-144 217,-144 217,-144 263,-144 263,-144 269,-144 275,-150 275,-156 275,-156 275,-168 275,-168 275,-174 269,-180 263,-180"/>
<text text-anchor="middle" x="240" y="-159.5" font-family="sans" font-size="10.00">make_gvcfs</text>
</g>
<!-- 7&#45;&gt;9 -->
<g id="edge14" class="edge">
<title>7&#45;&gt;9</title>
<path fill="none" stroke="grey" stroke-width="2" d="M165.97,-215.88C178.55,-206.89 194.13,-195.76 207.75,-186.03"/>
<polygon fill="grey" stroke="grey" stroke-width="2" points="209.83,-188.85 215.93,-180.19 205.76,-183.15 209.83,-188.85"/>
</g>
<!-- 13 -->
<g id="node14" class="node">
<title>13</title>
<path fill="none" stroke="#56c9d8" stroke-width="2" stroke-dasharray="5,2" d="M351,-180C351,-180 305,-180 305,-180 299,-180 293,-174 293,-168 293,-168 293,-156 293,-156 293,-150 299,-144 305,-144 305,-144 351,-144 351,-144 357,-144 363,-150 363,-156 363,-156 363,-168 363,-168 363,-174 357,-180 351,-180"/>
<text text-anchor="middle" x="328" y="-159.5" font-family="sans" font-size="10.00">make_gvcfs</text>
</g>
<!-- 7&#45;&gt;13 -->
<g id="edge20" class="edge">
<title>7&#45;&gt;13</title>
<path fill="none" stroke="grey" stroke-width="2" d="M178.34,-219.25C181.27,-218.15 184.18,-217.05 187,-216 227.29,-200.91 239.45,-196.8 283.4,-180.21"/>
<polygon fill="grey" stroke="grey" stroke-width="2" points="284.84,-183.4 292.95,-176.59 282.36,-176.86 284.84,-183.4"/>
</g>
<!-- 8 -->
<g id="node9" class="node">
<title>8</title>
<path fill="none" stroke="#56d873" stroke-width="2" stroke-dasharray="5,2" d="M367.5,-252C367.5,-252 314.5,-252 314.5,-252 308.5,-252 302.5,-246 302.5,-240 302.5,-240 302.5,-228 302.5,-228 302.5,-222 308.5,-216 314.5,-216 314.5,-216 367.5,-216 367.5,-216 373.5,-216 379.5,-222 379.5,-228 379.5,-228 379.5,-240 379.5,-240 379.5,-246 373.5,-252 367.5,-252"/>
<text text-anchor="middle" x="341" y="-231.5" font-family="sans" font-size="10.00">genome_faidx</text>
</g>
<!-- 8&#45;&gt;0 -->
<g id="edge2" class="edge">
<title>8&#45;&gt;0</title>
<path fill="none" stroke="grey" stroke-width="2" d="M354.47,-215.76C366.84,-197.7 381.88,-168.6 372,-144 354.04,-99.3 310.56,-63.46 278.39,-41.81"/>
<polygon fill="grey" stroke="grey" stroke-width="2" points="279.93,-38.64 269.64,-36.09 276.09,-44.49 279.93,-38.64"/>
</g>
<!-- 8&#45;&gt;2 -->
<g id="edge9" class="edge">
<title>8&#45;&gt;2</title>
<path fill="none" stroke="grey" stroke-width="2" d="M302.46,-219.13C275.26,-209.29 237.74,-195.62 196.47,-180.15"/>
<polygon fill="grey" stroke="grey" stroke-width="2" points="197.63,-176.85 187.04,-176.61 195.17,-183.4 197.63,-176.85"/>
</g>
<!-- 8&#45;&gt;9 -->
<g id="edge15" class="edge">
<title>8&#45;&gt;9</title>
<path fill="none" stroke="grey" stroke-width="2" d="M316.29,-215.88C303.33,-206.89 287.27,-195.76 273.23,-186.03"/>
<polygon fill="grey" stroke="grey" stroke-width="2" points="275.02,-183.01 264.8,-180.19 271.03,-188.76 275.02,-183.01"/>
</g>
<!-- 8&#45;&gt;13 -->
<g id="edge21" class="edge">
<title>8&#45;&gt;13</title>
<path fill="none" stroke="grey" stroke-width="2" d="M337.79,-215.7C336.35,-207.98 334.63,-198.71 333.04,-190.11"/>
<polygon fill="grey" stroke="grey" stroke-width="2" points="336.44,-189.3 331.18,-180.1 329.56,-190.58 336.44,-189.3"/>
</g>
<!-- 9&#45;&gt;1 -->
<g id="edge5" class="edge">
<title>9&#45;&gt;1</title>
<path fill="none" stroke="grey" stroke-width="2" d="M240,-143.7C240,-135.98 240,-126.71 240,-118.11"/>
<polygon fill="grey" stroke="grey" stroke-width="2" points="243.5,-118.1 240,-108.1 236.5,-118.1 243.5,-118.1"/>
</g>
<!-- 10 -->
<g id="node11" class="node">
<title>10</title>
<path fill="none" stroke="#d8cb56" stroke-width="2" stroke-dasharray="5,2" d="M272,-252C272,-252 208,-252 208,-252 202,-252 196,-246 196,-240 196,-240 196,-228 196,-228 196,-222 202,-216 208,-216 208,-216 272,-216 272,-216 278,-216 284,-222 284,-228 284,-228 284,-240 284,-240 284,-246 278,-252 272,-252"/>
<text text-anchor="middle" x="240" y="-231.5" font-family="sans" font-size="10.00">mark_duplicates</text>
</g>
<!-- 10&#45;&gt;9 -->
<g id="edge13" class="edge">
<title>10&#45;&gt;9</title>
<path fill="none" stroke="grey" stroke-width="2" d="M240,-215.7C240,-207.98 240,-198.71 240,-190.11"/>
<polygon fill="grey" stroke="grey" stroke-width="2" points="243.5,-190.1 240,-180.1 236.5,-190.1 243.5,-190.1"/>
</g>
<!-- 11&#45;&gt;10 -->
<g id="edge16" class="edge">
<title>11&#45;&gt;10</title>
<path fill="none" stroke="grey" stroke-width="2" d="M240,-287.7C240,-279.98 240,-270.71 240,-262.11"/>
<polygon fill="grey" stroke="grey" stroke-width="2" points="243.5,-262.1 240,-252.1 236.5,-262.1 243.5,-262.1"/>
</g>
<!-- 12 -->
<g id="node13" class="node">
<title>12</title>
<path fill="none" stroke="#d85656" stroke-width="2" stroke-dasharray="5,2" d="M219,-396C219,-396 181,-396 181,-396 175,-396 169,-390 169,-384 169,-384 169,-372 169,-372 169,-366 175,-360 181,-360 181,-360 219,-360 219,-360 225,-360 231,-366 231,-372 231,-372 231,-384 231,-384 231,-390 225,-396 219,-396"/>
<text text-anchor="middle" x="200" y="-381" font-family="sans" font-size="10.00">trim_reads</text>
<text text-anchor="middle" x="200" y="-370" font-family="sans" font-size="10.00">sample: B</text>
</g>
<!-- 12&#45;&gt;11 -->
<g id="edge17" class="edge">
<title>12&#45;&gt;11</title>
<path fill="none" stroke="grey" stroke-width="2" d="M209.89,-359.7C214.49,-351.64 220.06,-341.89 225.15,-332.98"/>
<polygon fill="grey" stroke="grey" stroke-width="2" points="228.3,-334.52 230.23,-324.1 222.23,-331.05 228.3,-334.52"/>
</g>
<!-- 13&#45;&gt;1 -->
<g id="edge6" class="edge">
<title>13&#45;&gt;1</title>
<path fill="none" stroke="grey" stroke-width="2" d="M306.25,-143.7C295.16,-134.88 281.53,-124.03 269.51,-114.47"/>
<polygon fill="grey" stroke="grey" stroke-width="2" points="271.51,-111.59 261.5,-108.1 267.15,-117.07 271.51,-111.59"/>
</g>
<!-- 14 -->
<g id="node15" class="node">
<title>14</title>
<path fill="none" stroke="#d8cb56" stroke-width="2" stroke-dasharray="5,2" d="M474,-252C474,-252 410,-252 410,-252 404,-252 398,-246 398,-240 398,-240 398,-228 398,-228 398,-222 404,-216 410,-216 410,-216 474,-216 474,-216 480,-216 486,-222 486,-228 486,-228 486,-240 486,-240 486,-246 480,-252 474,-252"/>
<text text-anchor="middle" x="442" y="-231.5" font-family="sans" font-size="10.00">mark_duplicates</text>
</g>
<!-- 14&#45;&gt;13 -->
<g id="edge19" class="edge">
<title>14&#45;&gt;13</title>
<path fill="none" stroke="grey" stroke-width="2" d="M414.11,-215.88C399.21,-206.72 380.67,-195.34 364.62,-185.48"/>
<polygon fill="grey" stroke="grey" stroke-width="2" points="366.35,-182.44 355.99,-180.19 362.69,-188.41 366.35,-182.44"/>
</g>
<!-- 15&#45;&gt;14 -->
<g id="edge22" class="edge">
<title>15&#45;&gt;14</title>
<path fill="none" stroke="grey" stroke-width="2" d="M382.53,-287.7C392.38,-278.97 404.49,-268.24 415.2,-258.75"/>
<polygon fill="grey" stroke="grey" stroke-width="2" points="417.53,-261.36 422.7,-252.1 412.89,-256.12 417.53,-261.36"/>
</g>
<!-- 16 -->
<g id="node17" class="node">
<title>16</title>
<path fill="none" stroke="#d85656" stroke-width="2" stroke-dasharray="5,2" d="M382,-396C382,-396 344,-396 344,-396 338,-396 332,-390 332,-384 332,-384 332,-372 332,-372 332,-366 338,-360 344,-360 344,-360 382,-360 382,-360 388,-360 394,-366 394,-372 394,-372 394,-384 394,-384 394,-390 388,-396 382,-396"/>
<text text-anchor="middle" x="363" y="-381" font-family="sans" font-size="10.00">trim_reads</text>
<text text-anchor="middle" x="363" y="-370" font-family="sans" font-size="10.00">sample: C</text>
</g>
<!-- 16&#45;&gt;15 -->
<g id="edge23" class="edge">
<title>16&#45;&gt;15</title>
<path fill="none" stroke="grey" stroke-width="2" d="M363,-359.7C363,-351.98 363,-342.71 363,-334.11"/>
<polygon fill="grey" stroke="grey" stroke-width="2" points="366.5,-334.1 363,-324.1 359.5,-334.1 366.5,-334.1"/>
</g>
</g>
</svg>
