<?xml version="1.0" encoding="UTF-8" standalone="no"?>
<!DOCTYPE svg PUBLIC "-//W3C//DTD SVG 1.1//EN"
 "http://www.w3.org/Graphics/SVG/1.1/DTD/svg11.dtd">
<!-- Generated by graphviz version 2.50.0 (0)
 -->
<!-- Title: snakemake_dag Pages: 1 -->
<svg width="623pt" height="1286pt"
 viewBox="0.00 0.00 623.00 1286.00" xmlns="http://www.w3.org/2000/svg" xmlns:xlink="http://www.w3.org/1999/xlink">
<g id="graph0" class="graph" transform="scale(1 1) rotate(0) translate(4 1282)">
<title>snakemake_dag</title>
<polygon fill="white" stroke="transparent" points="-4,4 -4,-1282 619,-1282 619,4 -4,4"/>
<!-- 0 -->
<g id="node1" class="node">
<title>0</title>
<text text-anchor="start" x="236.5" y="-147.6" font-family="sans" font-weight="bold" font-size="18.00">vcf_from_gdb</text>
<text text-anchor="start" x="205.5" y="-123.8" font-family="sans" font-size="10.00"> </text>
<text text-anchor="start" x="209.5" y="-123.8" font-family="sans" font-weight="bold" font-size="14.00">↪ input</text>
<text text-anchor="start" x="261.5" y="-123.8" font-family="sans" font-size="10.00"> </text>
<text text-anchor="start" x="205.5" y="-104" font-family="monospace" font-size="10.00">resources/genome.dict</text>
<text text-anchor="start" x="205.5" y="-86" font-family="monospace" font-size="10.00">resources/genome.fasta</text>
<text text-anchor="start" x="205.5" y="-68" font-family="monospace" font-size="10.00">resources/genome.fasta.fai</text>
<text text-anchor="start" x="205.5" y="-50" font-family="monospace" font-size="10.00">results/genomics_db/CM031202.1</text>
<text text-anchor="start" x="317.5" y="-29.8" font-family="sans" font-size="10.00"> </text>
<text text-anchor="start" x="321.5" y="-29.8" font-family="sans" font-weight="bold" font-size="14.00">output →</text>
<text text-anchor="start" x="382.5" y="-29.8" font-family="sans" font-size="10.00"> </text>
<text text-anchor="start" x="205.5" y="-10" font-family="monospace" font-size="10.00">results/vcf/all.vcf</text>
<polygon fill="#74d957" stroke="#74d957" points="199.5,-138 199.5,-138 393.5,-138 393.5,-138 199.5,-138"/>
<polygon fill="#74d957" stroke="#74d957" points="199.5,-44 199.5,-44 393.5,-44 393.5,-44 199.5,-44"/>
<polygon fill="none" stroke="#74d957" stroke-width="2" points="199,-1 199,-167 392,-167 392,-1 199,-1"/>
</g>
<!-- 1 -->
<g id="node2" class="node">
<title>1</title>
<text text-anchor="start" x="204.5" y="-333.6" font-family="sans" font-weight="bold" font-size="18.00">import_genomics_db</text>
<text text-anchor="start" x="204.5" y="-309.8" font-family="sans" font-size="10.00"> </text>
<text text-anchor="start" x="208.5" y="-309.8" font-family="sans" font-weight="bold" font-size="14.00">↪ input</text>
<text text-anchor="start" x="260.5" y="-309.8" font-family="sans" font-size="10.00"> </text>
<text text-anchor="start" x="204.5" y="-290" font-family="monospace" font-size="10.00">results/gvcf/A.g.vcf.gz</text>
<text text-anchor="start" x="204.5" y="-272" font-family="monospace" font-size="10.00">results/gvcf/B.g.vcf.gz</text>
<text text-anchor="start" x="204.5" y="-254" font-family="monospace" font-size="10.00">results/gvcf/C.g.vcf.gz</text>
<text text-anchor="start" x="318.5" y="-233.8" font-family="sans" font-size="10.00"> </text>
<text text-anchor="start" x="322.5" y="-233.8" font-family="sans" font-weight="bold" font-size="14.00">output →</text>
<text text-anchor="start" x="383.5" y="-233.8" font-family="sans" font-size="10.00"> </text>
<text text-anchor="start" x="204.5" y="-214" font-family="monospace" font-size="10.00">results/genomics_db/CM031202.1</text>
<polygon fill="#57d9ad" stroke="#57d9ad" points="198.5,-324 198.5,-324 394.5,-324 394.5,-324 198.5,-324"/>
<polygon fill="#57d9ad" stroke="#57d9ad" points="198.5,-248 198.5,-248 394.5,-248 394.5,-248 198.5,-248"/>
<polygon fill="none" stroke="#57d9ad" stroke-width="2" points="198,-205 198,-353 393,-353 393,-205 198,-205"/>
</g>
<!-- 1&#45;&gt;0 -->
<g id="edge1" class="edge">
<title>1&#45;&gt;0</title>
<path fill="none" stroke="grey" stroke-width="2" d="M295.5,-203.93C295.5,-195.53 295.5,-186.88 295.5,-178.27"/>
<polygon fill="grey" stroke="grey" stroke-width="2" points="299,-178.2 295.5,-168.2 292,-178.2 299,-178.2"/>
</g>
<!-- 2 -->
<g id="node3" class="node">
<title>2</title>
<text text-anchor="start" x="245" y="-573.6" font-family="sans" font-weight="bold" font-size="18.00">make_gvcfs</text>
<text text-anchor="start" x="193.5" y="-549.8" font-family="sans" font-size="10.00"> </text>
<text text-anchor="start" x="197.5" y="-549.8" font-family="sans" font-weight="bold" font-size="14.00">↪ input</text>
<text text-anchor="start" x="249.5" y="-549.8" font-family="sans" font-size="10.00"> </text>
<text text-anchor="start" x="193.5" y="-530" font-family="monospace" font-size="10.00">resources/genome.dict</text>
<text text-anchor="start" x="193.5" y="-512" font-family="monospace" font-size="10.00">resources/genome.fasta</text>
<text text-anchor="start" x="193.5" y="-494" font-family="monospace" font-size="10.00">resources/genome.fasta.fai</text>
<text text-anchor="start" x="193.5" y="-476" font-family="monospace" font-size="10.00">results/mkdup/{sample}.bai</text>
<text text-anchor="start" x="193.5" y="-458" font-family="monospace" font-size="10.00">results/mkdup/{sample}.bam</text>
<text text-anchor="start" x="329.5" y="-437.8" font-family="sans" font-size="10.00"> </text>
<text text-anchor="start" x="333.5" y="-437.8" font-family="sans" font-weight="bold" font-size="14.00">output →</text>
<text text-anchor="start" x="394.5" y="-437.8" font-family="sans" font-size="10.00"> </text>
<text text-anchor="start" x="193.5" y="-418" font-family="monospace" font-size="10.00">results/gvcf/{sample}.g.vcf.gz</text>
<text text-anchor="start" x="193.5" y="-400" font-family="monospace" font-size="10.00">results/gvcf/{sample}.g.vcf.gz.tbi</text>
<polygon fill="#d95757" stroke="#d95757" points="187.5,-564 187.5,-564 405.5,-564 405.5,-564 187.5,-564"/>
<polygon fill="#d95757" stroke="#d95757" points="187.5,-452 187.5,-452 405.5,-452 405.5,-452 187.5,-452"/>
<polygon fill="none" stroke="#d95757" stroke-width="2" points="187,-391 187,-593 404,-593 404,-391 187,-391"/>
</g>
<!-- 2&#45;&gt;1 -->
<g id="edge4" class="edge">
<title>2&#45;&gt;1</title>
<path fill="none" stroke="grey" stroke-width="2" d="M295.5,-389.83C295.5,-381.25 295.5,-372.64 295.5,-364.22"/>
<polygon fill="grey" stroke="grey" stroke-width="2" points="299,-364.06 295.5,-354.06 292,-364.06 299,-364.06"/>
</g>
<!-- 3 -->
<g id="node4" class="node">
<title>3</title>
<text text-anchor="start" x="225" y="-759.6" font-family="sans" font-weight="bold" font-size="18.00">mark_duplicates</text>
<text text-anchor="start" x="172.5" y="-735.8" font-family="sans" font-size="10.00"> </text>
<text text-anchor="start" x="176.5" y="-735.8" font-family="sans" font-weight="bold" font-size="14.00">↪ input</text>
<text text-anchor="start" x="228.5" y="-735.8" font-family="sans" font-size="10.00"> </text>
<text text-anchor="start" x="172.5" y="-716" font-family="monospace" font-size="10.00">results/bam/{sample}.bam</text>
<text text-anchor="start" x="350.5" y="-695.8" font-family="sans" font-size="10.00"> </text>
<text text-anchor="start" x="354.5" y="-695.8" font-family="sans" font-weight="bold" font-size="14.00">output →</text>
<text text-anchor="start" x="415.5" y="-695.8" font-family="sans" font-size="10.00"> </text>
<text text-anchor="start" x="172.5" y="-676" font-family="monospace" font-size="10.00">results/mkdup/{sample}.bai</text>
<text text-anchor="start" x="172.5" y="-658" font-family="monospace" font-size="10.00">results/mkdup/{sample}.bam</text>
<text text-anchor="start" x="172.5" y="-640" font-family="monospace" font-size="10.00">results/qc/mkdup_metrics/{sample}.metrics</text>
<polygon fill="#add957" stroke="#add957" points="166.5,-750 166.5,-750 426.5,-750 426.5,-750 166.5,-750"/>
<polygon fill="#add957" stroke="#add957" points="166.5,-710 166.5,-710 426.5,-710 426.5,-710 166.5,-710"/>
<polygon fill="none" stroke="#add957" stroke-width="2" points="166,-631 166,-779 425,-779 425,-631 166,-631"/>
</g>
<!-- 3&#45;&gt;2 -->
<g id="edge6" class="edge">
<title>3&#45;&gt;2</title>
<path fill="none" stroke="grey" stroke-width="2" d="M295.5,-629.91C295.5,-621.63 295.5,-613.06 295.5,-604.45"/>
<polygon fill="grey" stroke="grey" stroke-width="2" points="299,-604.32 295.5,-594.32 292,-604.32 299,-604.32"/>
</g>
<!-- 4 -->
<g id="node5" class="node">
<title>4</title>
<text text-anchor="start" x="249" y="-1035.6" font-family="sans" font-weight="bold" font-size="18.00">map_reads</text>
<text text-anchor="start" x="187.5" y="-1011.8" font-family="sans" font-size="10.00"> </text>
<text text-anchor="start" x="191.5" y="-1011.8" font-family="sans" font-weight="bold" font-size="14.00">↪ input</text>
<text text-anchor="start" x="243.5" y="-1011.8" font-family="sans" font-size="10.00"> </text>
<text text-anchor="start" x="187.5" y="-992" font-family="monospace" font-size="10.00">resources/genome.fasta</text>
<text text-anchor="start" x="187.5" y="-974" font-family="monospace" font-size="10.00">resources/genome.fasta.amb</text>
<text text-anchor="start" x="187.5" y="-956" font-family="monospace" font-size="10.00">resources/genome.fasta.ann</text>
<text text-anchor="start" x="187.5" y="-938" font-family="monospace" font-size="10.00">resources/genome.fasta.bwt</text>
<text text-anchor="start" x="187.5" y="-920" font-family="monospace" font-size="10.00">resources/genome.fasta.pac</text>
<text text-anchor="start" x="187.5" y="-902" font-family="monospace" font-size="10.00">resources/genome.fasta.sa</text>
<text text-anchor="start" x="187.5" y="-884" font-family="monospace" font-size="10.00">results/trimmed/{sample}_R1.fastq.gz</text>
<text text-anchor="start" x="187.5" y="-866" font-family="monospace" font-size="10.00">results/trimmed/{sample}_R2.fastq.gz</text>
<text text-anchor="start" x="335.5" y="-845.8" font-family="sans" font-size="10.00"> </text>
<text text-anchor="start" x="339.5" y="-845.8" font-family="sans" font-weight="bold" font-size="14.00">output →</text>
<text text-anchor="start" x="400.5" y="-845.8" font-family="sans" font-size="10.00"> </text>
<text text-anchor="start" x="187.5" y="-826" font-family="monospace" font-size="10.00">results/bam/{sample}.bam</text>
<polygon fill="#57d974" stroke="#57d974" points="181.5,-1026 181.5,-1026 411.5,-1026 411.5,-1026 181.5,-1026"/>
<polygon fill="#57d974" stroke="#57d974" points="181.5,-860 181.5,-860 411.5,-860 411.5,-860 181.5,-860"/>
<polygon fill="none" stroke="#57d974" stroke-width="2" points="181,-817 181,-1055 410,-1055 410,-817 181,-817"/>
</g>
<!-- 4&#45;&gt;3 -->
<g id="edge8" class="edge">
<title>4&#45;&gt;3</title>
<path fill="none" stroke="grey" stroke-width="2" d="M295.5,-815.8C295.5,-807.15 295.5,-798.53 295.5,-790.15"/>
<polygon fill="grey" stroke="grey" stroke-width="2" points="299,-790.05 295.5,-780.05 292,-790.05 299,-790.05"/>
</g>
<!-- 5 -->
<g id="node6" class="node">
<title>5</title>
<text text-anchor="start" x="127.5" y="-1257.6" font-family="sans" font-weight="bold" font-size="18.00">trim_reads</text>
<text text-anchor="start" x="37.5" y="-1233.8" font-family="sans" font-size="10.00"> </text>
<text text-anchor="start" x="41.5" y="-1233.8" font-family="sans" font-weight="bold" font-size="14.00">↪ input</text>
<text text-anchor="start" x="93.5" y="-1233.8" font-family="sans" font-size="10.00"> </text>
<text text-anchor="start" x="37.5" y="-1214" font-family="monospace" font-size="10.00">data/{sample}_R1.fastq.gz</text>
<text text-anchor="start" x="37.5" y="-1196" font-family="monospace" font-size="10.00">data/{sample}_R2.fastq.gz</text>
<text text-anchor="start" x="239.5" y="-1175.8" font-family="sans" font-size="10.00"> </text>
<text text-anchor="start" x="243.5" y="-1175.8" font-family="sans" font-weight="bold" font-size="14.00">output →</text>
<text text-anchor="start" x="304.5" y="-1175.8" font-family="sans" font-size="10.00"> </text>
<text text-anchor="start" x="37.5" y="-1156" font-family="monospace" font-size="10.00">results/trimmed/{sample}_R1.fastq.gz</text>
<text text-anchor="start" x="37.5" y="-1138" font-family="monospace" font-size="10.00">results/trimmed/{sample}_R1.unpaired.fastq.gz</text>
<text text-anchor="start" x="37.5" y="-1120" font-family="monospace" font-size="10.00">results/trimmed/{sample}_R2.fastq.gz</text>
<text text-anchor="start" x="37.5" y="-1102" font-family="monospace" font-size="10.00">results/trimmed/{sample}_R2.unpaired.fastq.gz</text>
<polygon fill="#57cad9" stroke="#57cad9" points="31.5,-1248 31.5,-1248 315.5,-1248 315.5,-1248 31.5,-1248"/>
<polygon fill="#57cad9" stroke="#57cad9" points="31.5,-1190 31.5,-1190 315.5,-1190 315.5,-1190 31.5,-1190"/>
<polygon fill="none" stroke="#57cad9" stroke-width="2" points="31,-1093 31,-1277 314,-1277 314,-1093 31,-1093"/>
</g>
<!-- 5&#45;&gt;4 -->
<g id="edge10" class="edge">
<title>5&#45;&gt;4</title>
<path fill="none" stroke="grey" stroke-width="2" d="M218.48,-1091.68C222.73,-1083.13 227.09,-1074.38 231.47,-1065.59"/>
<polygon fill="grey" stroke="grey" stroke-width="2" points="234.71,-1066.93 236.03,-1056.42 228.44,-1063.81 234.71,-1066.93"/>
</g>
<!-- 6 -->
<g id="node7" class="node">
<title>6</title>
<text text-anchor="start" x="372.5" y="-1257.6" font-family="sans" font-weight="bold" font-size="18.00">bwa_index</text>
<text text-anchor="start" x="340.5" y="-1233.8" font-family="sans" font-size="10.00"> </text>
<text text-anchor="start" x="344.5" y="-1233.8" font-family="sans" font-weight="bold" font-size="14.00">↪ input</text>
<text text-anchor="start" x="396.5" y="-1233.8" font-family="sans" font-size="10.00"> </text>
<text text-anchor="start" x="340.5" y="-1214" font-family="monospace" font-size="10.00">resources/genome.fasta</text>
<text text-anchor="start" x="428.5" y="-1193.8" font-family="sans" font-size="10.00"> </text>
<text text-anchor="start" x="432.5" y="-1193.8" font-family="sans" font-weight="bold" font-size="14.00">output →</text>
<text text-anchor="start" x="493.5" y="-1193.8" font-family="sans" font-size="10.00"> </text>
<text text-anchor="start" x="340.5" y="-1174" font-family="monospace" font-size="10.00">resources/genome.fasta.amb</text>
<text text-anchor="start" x="340.5" y="-1156" font-family="monospace" font-size="10.00">resources/genome.fasta.ann</text>
<text text-anchor="start" x="340.5" y="-1138" font-family="monospace" font-size="10.00">resources/genome.fasta.bwt</text>
<text text-anchor="start" x="340.5" y="-1120" font-family="monospace" font-size="10.00">resources/genome.fasta.pac</text>
<text text-anchor="start" x="340.5" y="-1102" font-family="monospace" font-size="10.00">resources/genome.fasta.sa</text>
<polygon fill="#5791d9" stroke="#5791d9" points="334.5,-1248 334.5,-1248 504.5,-1248 504.5,-1248 334.5,-1248"/>
<polygon fill="#5791d9" stroke="#5791d9" points="334.5,-1208 334.5,-1208 504.5,-1208 504.5,-1208 334.5,-1208"/>
<polygon fill="none" stroke="#5791d9" stroke-width="2" points="334,-1093 334,-1277 503,-1277 503,-1093 334,-1093"/>
</g>
<!-- 6&#45;&gt;4 -->
<g id="edge9" class="edge">
<title>6&#45;&gt;4</title>
<path fill="none" stroke="grey" stroke-width="2" d="M372.52,-1091.68C368.27,-1083.13 363.91,-1074.38 359.53,-1065.59"/>
<polygon fill="grey" stroke="grey" stroke-width="2" points="362.56,-1063.81 354.97,-1056.42 356.29,-1066.93 362.56,-1063.81"/>
</g>
<!-- 7 -->
<g id="node8" class="node">
<title>7</title>
<text text-anchor="start" x="18" y="-741.6" font-family="sans" font-weight="bold" font-size="18.00">genome_dict</text>
<text text-anchor="start" x="7.5" y="-717.8" font-family="sans" font-size="10.00"> </text>
<text text-anchor="start" x="11.5" y="-717.8" font-family="sans" font-weight="bold" font-size="14.00">↪ input</text>
<text text-anchor="start" x="63.5" y="-717.8" font-family="sans" font-size="10.00"> </text>
<text text-anchor="start" x="7.5" y="-698" font-family="monospace" font-size="10.00">resources/genome.fasta</text>
<text text-anchor="start" x="71.5" y="-677.8" font-family="sans" font-size="10.00"> </text>
<text text-anchor="start" x="75.5" y="-677.8" font-family="sans" font-weight="bold" font-size="14.00">output →</text>
<text text-anchor="start" x="136.5" y="-677.8" font-family="sans" font-size="10.00"> </text>
<text text-anchor="start" x="7.5" y="-658" font-family="monospace" font-size="10.00">resources/genome.dict</text>
<polygon fill="#d9ca57" stroke="#d9ca57" points="1.5,-732 1.5,-732 147.5,-732 147.5,-732 1.5,-732"/>
<polygon fill="#d9ca57" stroke="#d9ca57" points="1.5,-692 1.5,-692 147.5,-692 147.5,-692 1.5,-692"/>
<polygon fill="none" stroke="#d9ca57" stroke-width="2" points="1,-649 1,-761 146,-761 146,-649 1,-649"/>
</g>
<!-- 7&#45;&gt;0 -->
<g id="edge3" class="edge">
<title>7&#45;&gt;0</title>
<path fill="none" stroke="grey" stroke-width="2" d="M77.01,-647.94C84.98,-551.97 110.22,-352.23 187.5,-204 192.44,-194.53 198.31,-185.23 204.74,-176.26"/>
<polygon fill="grey" stroke="grey" stroke-width="2" points="207.63,-178.24 210.78,-168.13 202.01,-174.07 207.63,-178.24"/>
</g>
<!-- 7&#45;&gt;2 -->
<g id="edge7" class="edge">
<title>7&#45;&gt;2</title>
<path fill="none" stroke="grey" stroke-width="2" d="M132.7,-647.73C147.87,-633.31 164.71,-617.31 181.64,-601.22"/>
<polygon fill="grey" stroke="grey" stroke-width="2" points="184.05,-603.75 188.89,-594.33 179.23,-598.68 184.05,-603.75"/>
</g>
<!-- 8 -->
<g id="node9" class="node">
<title>8</title>
<text text-anchor="start" x="469.5" y="-741.6" font-family="sans" font-weight="bold" font-size="18.00">genome_faidx</text>
<text text-anchor="start" x="451.5" y="-717.8" font-family="sans" font-size="10.00"> </text>
<text text-anchor="start" x="455.5" y="-717.8" font-family="sans" font-weight="bold" font-size="14.00">↪ input</text>
<text text-anchor="start" x="507.5" y="-717.8" font-family="sans" font-size="10.00"> </text>
<text text-anchor="start" x="451.5" y="-698" font-family="monospace" font-size="10.00">resources/genome.fasta</text>
<text text-anchor="start" x="539.5" y="-677.8" font-family="sans" font-size="10.00"> </text>
<text text-anchor="start" x="543.5" y="-677.8" font-family="sans" font-weight="bold" font-size="14.00">output →</text>
<text text-anchor="start" x="604.5" y="-677.8" font-family="sans" font-size="10.00"> </text>
<text text-anchor="start" x="451.5" y="-658" font-family="monospace" font-size="10.00">resources/genome.fasta.fai</text>
<polygon fill="#d99157" stroke="#d99157" points="445.5,-732 445.5,-732 615.5,-732 615.5,-732 445.5,-732"/>
<polygon fill="#d99157" stroke="#d99157" points="445.5,-692 445.5,-692 615.5,-692 615.5,-692 445.5,-692"/>
<polygon fill="none" stroke="#d99157" stroke-width="2" points="445,-649 445,-761 614,-761 614,-649 445,-649"/>
</g>
<!-- 8&#45;&gt;0 -->
<g id="edge2" class="edge">
<title>8&#45;&gt;0</title>
<path fill="none" stroke="grey" stroke-width="2" d="M524.12,-647.96C513.05,-552.02 481.72,-352.32 402.5,-204 397.44,-194.52 391.47,-185.2 384.97,-176.19"/>
<polygon fill="grey" stroke="grey" stroke-width="2" points="387.66,-173.93 378.87,-168.01 382.05,-178.12 387.66,-173.93"/>
</g>
<!-- 8&#45;&gt;2 -->
<g id="edge5" class="edge">
<title>8&#45;&gt;2</title>
<path fill="none" stroke="grey" stroke-width="2" d="M467.1,-647.73C450.25,-632.54 431.45,-615.58 412.64,-598.63"/>
<polygon fill="grey" stroke="grey" stroke-width="2" points="414.93,-595.97 405.16,-591.88 410.24,-601.17 414.93,-595.97"/>
</g>
</g>
</svg>
