<?xml version="1.0" encoding="UTF-8" standalone="no"?>
<!DOCTYPE svg PUBLIC "-//W3C//DTD SVG 1.1//EN"
 "http://www.w3.org/Graphics/SVG/1.1/DTD/svg11.dtd">
<!-- Generated by graphviz version 2.40.1 (20161225.0304)
 -->
<!-- Title: snakemake_dag Pages: 1 -->
<svg width="1346pt" height="1454pt"
 viewBox="0.00 0.00 1345.82 1454.00" xmlns="http://www.w3.org/2000/svg" xmlns:xlink="http://www.w3.org/1999/xlink">
<g id="graph0" class="graph" transform="scale(1 1) rotate(0) translate(4 1450)">
<title>snakemake_dag</title>
<polygon fill="#ffffff" stroke="transparent" points="-4,4 -4,-1450 1341.8231,-1450 1341.8231,4 -4,4"/>
<!-- 1 -->
<g id="node1" class="node">
<title>1</title>
<path fill="none" stroke="#97d856" stroke-width="2" d="M421.8231,-285C421.8231,-285 369.8231,-285 369.8231,-285 363.8231,-285 357.8231,-279 357.8231,-273 357.8231,-273 357.8231,-261 357.8231,-261 357.8231,-255 363.8231,-249 369.8231,-249 369.8231,-249 421.8231,-249 421.8231,-249 427.8231,-249 433.8231,-255 433.8231,-261 433.8231,-261 433.8231,-273 433.8231,-273 433.8231,-279 427.8231,-285 421.8231,-285"/>
<text text-anchor="middle" x="395.8231" y="-264.5" font-family="sans" font-size="10.00" fill="#000000">bcf_concat: 1</text>
</g>
<!-- 37 -->
<g id="node37" class="node">
<title>37</title>
<path fill="none" stroke="#569ad8" stroke-width="2" d="M687.8231,-36C687.8231,-36 657.8231,-36 657.8231,-36 651.8231,-36 645.8231,-30 645.8231,-24 645.8231,-24 645.8231,-12 645.8231,-12 645.8231,-6 651.8231,0 657.8231,0 657.8231,0 687.8231,0 687.8231,0 693.8231,0 699.8231,-6 699.8231,-12 699.8231,-12 699.8231,-24 699.8231,-24 699.8231,-30 693.8231,-36 687.8231,-36"/>
<text text-anchor="middle" x="672.8231" y="-15.5" font-family="sans" font-size="10.00" fill="#000000">all: 1</text>
</g>
<!-- 1&#45;&gt;37 -->
<g id="edge1" class="edge">
<title>1&#45;&gt;37</title>
<path fill="none" stroke="#c0c0c0" stroke-width="2" d="M392.6892,-248.7303C389.2136,-223.1262 386.1955,-175.8067 403.8231,-141 447.4683,-54.82 572.2241,-28.8783 635.3175,-21.1802"/>
<polygon fill="#c0c0c0" stroke="#c0c0c0" stroke-width="2" points="636.0756,-24.617 645.6208,-20.0192 635.2918,-17.661 636.0756,-24.617"/>
<text text-anchor="middle" x="407.8231" y="-155.3" font-family="Times,serif" font-size="14.00" fill="#000000">1</text>
</g>
<!-- 2 -->
<g id="node2" class="node">
<title>2</title>
<path fill="none" stroke="#56d8c1" stroke-width="2" d="M727.3231,-177C727.3231,-177 648.3231,-177 648.3231,-177 642.3231,-177 636.3231,-171 636.3231,-165 636.3231,-165 636.3231,-153 636.3231,-153 636.3231,-147 642.3231,-141 648.3231,-141 648.3231,-141 727.3231,-141 727.3231,-141 733.3231,-141 739.3231,-147 739.3231,-153 739.3231,-153 739.3231,-165 739.3231,-165 739.3231,-171 733.3231,-177 727.3231,-177"/>
<text text-anchor="middle" x="687.8231" y="-156.5" font-family="sans" font-size="10.00" fill="#000000">bcf_concat_mafs: 1</text>
</g>
<!-- 2&#45;&gt;37 -->
<g id="edge2" class="edge">
<title>2&#45;&gt;37</title>
<path fill="none" stroke="#c0c0c0" stroke-width="2" d="M685.8928,-140.8554C683.3389,-116.8485 678.811,-74.2861 675.8128,-46.1035"/>
<polygon fill="#c0c0c0" stroke="#c0c0c0" stroke-width="2" points="679.2843,-45.6486 674.746,-36.075 672.3235,-46.3892 679.2843,-45.6486"/>
<text text-anchor="middle" x="686.8231" y="-101.3" font-family="Times,serif" font-size="14.00" fill="#000000">1</text>
</g>
<!-- 3 -->
<g id="node3" class="node">
<title>3</title>
<path fill="none" stroke="#afd856" stroke-width="2" d="M659.8231,-231C659.8231,-231 523.8231,-231 523.8231,-231 517.8231,-231 511.8231,-225 511.8231,-219 511.8231,-219 511.8231,-207 511.8231,-207 511.8231,-201 517.8231,-195 523.8231,-195 523.8231,-195 659.8231,-195 659.8231,-195 665.8231,-195 671.8231,-201 671.8231,-207 671.8231,-207 671.8231,-219 671.8231,-219 671.8231,-225 665.8231,-231 659.8231,-231"/>
<text text-anchor="middle" x="591.8231" y="-210.5" font-family="sans" font-size="10.00" fill="#000000">bcf_maf_section_summaries: 32</text>
</g>
<!-- 9 -->
<g id="node9" class="node">
<title>9</title>
<path fill="none" stroke="#c6d856" stroke-width="2" d="M653.8231,-123C653.8231,-123 523.8231,-123 523.8231,-123 517.8231,-123 511.8231,-117 511.8231,-111 511.8231,-111 511.8231,-99 511.8231,-99 511.8231,-93 517.8231,-87 523.8231,-87 523.8231,-87 653.8231,-87 653.8231,-87 659.8231,-87 665.8231,-93 665.8231,-99 665.8231,-99 665.8231,-111 665.8231,-111 665.8231,-117 659.8231,-123 653.8231,-123"/>
<text text-anchor="middle" x="588.8231" y="-102.5" font-family="sans" font-size="10.00" fill="#000000">combine_maf_bcftools_stats: 1</text>
</g>
<!-- 3&#45;&gt;9 -->
<g id="edge3" class="edge">
<title>3&#45;&gt;9</title>
<path fill="none" stroke="#c0c0c0" stroke-width="2" d="M591.3142,-194.6793C590.8459,-177.821 590.1443,-152.5651 589.6049,-133.147"/>
<polygon fill="#c0c0c0" stroke="#c0c0c0" stroke-width="2" points="593.1009,-132.9491 589.3245,-123.0502 586.1036,-133.1435 593.1009,-132.9491"/>
<text text-anchor="middle" x="597.3231" y="-155.3" font-family="Times,serif" font-size="14.00" fill="#000000">32</text>
</g>
<!-- 4 -->
<g id="node4" class="node">
<title>4</title>
<path fill="none" stroke="#bed856" stroke-width="2" d="M546.8231,-339C546.8231,-339 432.8231,-339 432.8231,-339 426.8231,-339 420.8231,-333 420.8231,-327 420.8231,-327 420.8231,-315 420.8231,-315 420.8231,-309 426.8231,-303 432.8231,-303 432.8231,-303 546.8231,-303 546.8231,-303 552.8231,-303 558.8231,-309 558.8231,-315 558.8231,-315 558.8231,-327 558.8231,-327 558.8231,-333 552.8231,-339 546.8231,-339"/>
<text text-anchor="middle" x="489.8231" y="-324" font-family="sans" font-size="10.00" fill="#000000">bcf_section_summaries: 96</text>
<text text-anchor="middle" x="489.8231" y="-313" font-family="sans" font-size="10.00" fill="#000000">[filter_condition]</text>
</g>
<!-- 8 -->
<g id="node8" class="node">
<title>8</title>
<path fill="none" stroke="#56d89a" stroke-width="2" d="M538.8231,-177C538.8231,-177 430.8231,-177 430.8231,-177 424.8231,-177 418.8231,-171 418.8231,-165 418.8231,-165 418.8231,-153 418.8231,-153 418.8231,-147 424.8231,-141 430.8231,-141 430.8231,-141 538.8231,-141 538.8231,-141 544.8231,-141 550.8231,-147 550.8231,-153 550.8231,-153 550.8231,-165 550.8231,-165 550.8231,-171 544.8231,-177 538.8231,-177"/>
<text text-anchor="middle" x="484.8231" y="-156.5" font-family="sans" font-size="10.00" fill="#000000">combine_bcftools_stats: 3</text>
</g>
<!-- 4&#45;&gt;8 -->
<g id="edge4" class="edge">
<title>4&#45;&gt;8</title>
<path fill="none" stroke="#c0c0c0" stroke-width="2" d="M489.2592,-302.7314C488.3927,-274.6565 486.7266,-220.6749 485.7012,-187.4494"/>
<polygon fill="#c0c0c0" stroke="#c0c0c0" stroke-width="2" points="489.1995,-187.3376 485.3925,-177.4503 482.2028,-187.5536 489.1995,-187.3376"/>
<text text-anchor="middle" x="495.3231" y="-263.3" font-family="Times,serif" font-size="14.00" fill="#000000">96</text>
</g>
<!-- 5 -->
<g id="node5" class="node">
<title>5</title>
<path fill="none" stroke="#d8d356" stroke-width="2" d="M569.3231,-426C569.3231,-426 410.3231,-426 410.3231,-426 404.3231,-426 398.3231,-420 398.3231,-414 398.3231,-414 398.3231,-402 398.3231,-402 398.3231,-396 404.3231,-390 410.3231,-390 410.3231,-390 569.3231,-390 569.3231,-390 575.3231,-390 581.3231,-396 581.3231,-402 581.3231,-402 581.3231,-414 581.3231,-414 581.3231,-420 575.3231,-426 569.3231,-426"/>
<text text-anchor="middle" x="489.8231" y="-405.5" font-family="sans" font-size="10.00" fill="#000000">bung_filtered_vcfs_back_together: 32</text>
</g>
<!-- 5&#45;&gt;1 -->
<g id="edge5" class="edge">
<title>5&#45;&gt;1</title>
<path fill="none" stroke="#c0c0c0" stroke-width="2" d="M461.5632,-389.8669C444.6095,-377.5301 424.0332,-359.7153 411.8231,-339 404.051,-325.8142 400.0486,-309.2448 397.99,-295.3263"/>
<polygon fill="#c0c0c0" stroke="#c0c0c0" stroke-width="2" points="401.4519,-294.8008 396.7644,-285.2994 394.5036,-295.6502 401.4519,-294.8008"/>
<text text-anchor="middle" x="446.3231" y="-360.8" font-family="Times,serif" font-size="14.00" fill="#000000">32</text>
</g>
<!-- 5&#45;&gt;4 -->
<g id="edge6" class="edge">
<title>5&#45;&gt;4</title>
<path fill="none" stroke="#c0c0c0" stroke-width="2" d="M489.8231,-389.9735C489.8231,-378.1918 489.8231,-362.5607 489.8231,-349.1581"/>
<polygon fill="#c0c0c0" stroke="#c0c0c0" stroke-width="2" points="493.3232,-349.0033 489.8231,-339.0034 486.3232,-349.0034 493.3232,-349.0033"/>
<text text-anchor="middle" x="497.3231" y="-360.8" font-family="Times,serif" font-size="14.00" fill="#000000">96</text>
</g>
<!-- 24 -->
<g id="node24" class="node">
<title>24</title>
<path fill="none" stroke="#d8b456" stroke-width="2" d="M638.8231,-339C638.8231,-339 588.8231,-339 588.8231,-339 582.8231,-339 576.8231,-333 576.8231,-327 576.8231,-327 576.8231,-315 576.8231,-315 576.8231,-309 582.8231,-303 588.8231,-303 588.8231,-303 638.8231,-303 638.8231,-303 644.8231,-303 650.8231,-309 650.8231,-315 650.8231,-315 650.8231,-327 650.8231,-327 650.8231,-333 644.8231,-339 638.8231,-339"/>
<text text-anchor="middle" x="613.8231" y="-324" font-family="sans" font-size="10.00" fill="#000000">maf_filter: 32</text>
<text text-anchor="middle" x="613.8231" y="-313" font-family="sans" font-size="10.00" fill="#000000">[maf]</text>
</g>
<!-- 5&#45;&gt;24 -->
<g id="edge7" class="edge">
<title>5&#45;&gt;24</title>
<path fill="none" stroke="#c0c0c0" stroke-width="2" d="M515.516,-389.9735C534.1372,-376.9086 559.5051,-359.1102 579.8069,-344.8662"/>
<polygon fill="#c0c0c0" stroke="#c0c0c0" stroke-width="2" points="581.9872,-347.612 588.1631,-339.0034 577.9668,-341.8817 581.9872,-347.612"/>
<text text-anchor="middle" x="566.3231" y="-360.8" font-family="Times,serif" font-size="14.00" fill="#000000">32</text>
</g>
<!-- 6 -->
<g id="node6" class="node">
<title>6</title>
<path fill="none" stroke="#567bd8" stroke-width="2" stroke-dasharray="5,2" d="M819.3231,-1359C819.3231,-1359 768.3231,-1359 768.3231,-1359 762.3231,-1359 756.3231,-1353 756.3231,-1347 756.3231,-1347 756.3231,-1335 756.3231,-1335 756.3231,-1329 762.3231,-1323 768.3231,-1323 768.3231,-1323 819.3231,-1323 819.3231,-1323 825.3231,-1323 831.3231,-1329 831.3231,-1335 831.3231,-1335 831.3231,-1347 831.3231,-1347 831.3231,-1353 825.3231,-1359 819.3231,-1359"/>
<text text-anchor="middle" x="793.8231" y="-1338.5" font-family="sans" font-size="10.00" fill="#000000">bwa_index: 1</text>
</g>
<!-- 31 -->
<g id="node31" class="node">
<title>31</title>
<path fill="none" stroke="#56d863" stroke-width="2" d="M894.3231,-1251C894.3231,-1251 835.3231,-1251 835.3231,-1251 829.3231,-1251 823.3231,-1245 823.3231,-1239 823.3231,-1239 823.3231,-1227 823.3231,-1227 823.3231,-1221 829.3231,-1215 835.3231,-1215 835.3231,-1215 894.3231,-1215 894.3231,-1215 900.3231,-1215 906.3231,-1221 906.3231,-1227 906.3231,-1227 906.3231,-1239 906.3231,-1239 906.3231,-1245 900.3231,-1251 894.3231,-1251"/>
<text text-anchor="middle" x="864.8231" y="-1230.5" font-family="sans" font-size="10.00" fill="#000000">map_reads: 43</text>
</g>
<!-- 6&#45;&gt;31 -->
<g id="edge8" class="edge">
<title>6&#45;&gt;31</title>
<path fill="none" stroke="#c0c0c0" stroke-width="2" d="M805.8673,-1322.6793C817.2579,-1305.3527 834.4801,-1279.1555 847.3738,-1259.5427"/>
<polygon fill="#c0c0c0" stroke="#c0c0c0" stroke-width="2" points="850.388,-1261.3289 852.9568,-1251.0502 844.5388,-1257.4835 850.388,-1261.3289"/>
<text text-anchor="middle" x="847.3231" y="-1283.3" font-family="Times,serif" font-size="14.00" fill="#000000">43</text>
</g>
<!-- 7 -->
<g id="node7" class="node">
<title>7</title>
<path fill="none" stroke="#b6d856" stroke-width="2" d="M849.8231,-1023C849.8231,-1023 781.8231,-1023 781.8231,-1023 775.8231,-1023 769.8231,-1017 769.8231,-1011 769.8231,-1011 769.8231,-999 769.8231,-999 769.8231,-993 775.8231,-987 781.8231,-987 781.8231,-987 849.8231,-987 849.8231,-987 855.8231,-987 861.8231,-993 861.8231,-999 861.8231,-999 861.8231,-1011 861.8231,-1011 861.8231,-1017 855.8231,-1023 849.8231,-1023"/>
<text text-anchor="middle" x="815.8231" y="-1002.5" font-family="sans" font-size="10.00" fill="#000000">clip_overlaps: 43</text>
</g>
<!-- 7&#45;&gt;37 -->
<g id="edge9" class="edge">
<title>7&#45;&gt;37</title>
<path fill="none" stroke="#c0c0c0" stroke-width="2" d="M815.8231,-986.655C815.8231,-965.168 815.8231,-928.5 815.8231,-897 815.8231,-897 815.8231,-897 815.8231,-105 815.8231,-55.4683 752.4316,-33.3267 710.0614,-24.0595"/>
<polygon fill="#c0c0c0" stroke="#c0c0c0" stroke-width="2" points="710.5543,-20.5881 700.0569,-22.0216 709.1571,-27.4473 710.5543,-20.5881"/>
<text text-anchor="middle" x="823.3231" y="-534.8" font-family="Times,serif" font-size="14.00" fill="#000000">43</text>
</g>
<!-- 8&#45;&gt;37 -->
<g id="edge10" class="edge">
<title>8&#45;&gt;37</title>
<path fill="none" stroke="#c0c0c0" stroke-width="2" d="M482.5575,-140.7656C481.6088,-124.9013 482.8403,-102.1405 494.8231,-87 529.1436,-43.6352 594.3451,-27.4866 635.5908,-21.4984"/>
<polygon fill="#c0c0c0" stroke="#c0c0c0" stroke-width="2" points="636.0727,-24.9652 645.5275,-20.1845 635.155,-18.0256 636.0727,-24.9652"/>
<text text-anchor="middle" x="498.8231" y="-101.3" font-family="Times,serif" font-size="14.00" fill="#000000">3</text>
</g>
<!-- 9&#45;&gt;37 -->
<g id="edge11" class="edge">
<title>9&#45;&gt;37</title>
<path fill="none" stroke="#c0c0c0" stroke-width="2" d="M606.2279,-86.9735C618.3918,-74.3752 634.8054,-57.3755 648.2936,-43.4055"/>
<polygon fill="#c0c0c0" stroke="#c0c0c0" stroke-width="2" points="651.0125,-45.6285 655.4405,-36.0034 645.9766,-40.7663 651.0125,-45.6285"/>
<text text-anchor="middle" x="639.8231" y="-57.8" font-family="Times,serif" font-size="14.00" fill="#000000">1</text>
</g>
<!-- 10 -->
<g id="node10" class="node">
<title>10</title>
<path fill="none" stroke="#d85656" stroke-width="2" d="M137.3231,-915C137.3231,-915 32.3231,-915 32.3231,-915 26.3231,-915 20.3231,-909 20.3231,-903 20.3231,-903 20.3231,-891 20.3231,-891 20.3231,-885 26.3231,-879 32.3231,-879 32.3231,-879 137.3231,-879 137.3231,-879 143.3231,-879 149.3231,-885 149.3231,-891 149.3231,-891 149.3231,-903 149.3231,-903 149.3231,-909 143.3231,-915 137.3231,-915"/>
<text text-anchor="middle" x="84.8231" y="-894.5" font-family="sans" font-size="10.00" fill="#000000">concat_gvcf_sections: 43</text>
</g>
<!-- 10&#45;&gt;37 -->
<g id="edge12" class="edge">
<title>10&#45;&gt;37</title>
<path fill="none" stroke="#c0c0c0" stroke-width="2" d="M114.3195,-878.8681C138.1761,-861.6951 167.8231,-833.5117 167.8231,-799.5 167.8231,-799.5 167.8231,-799.5 167.8231,-105 167.8231,-57.5505 518.5389,-28.7655 635.4264,-20.4897"/>
<polygon fill="#c0c0c0" stroke="#c0c0c0" stroke-width="2" points="635.9401,-23.9624 645.6721,-19.7746 635.4527,-16.9794 635.9401,-23.9624"/>
<text text-anchor="middle" x="175.3231" y="-491.3" font-family="Times,serif" font-size="14.00" fill="#000000">43</text>
</g>
<!-- 11 -->
<g id="node11" class="node">
<title>11</title>
<path fill="none" stroke="#d86e56" stroke-width="2" d="M1081.8231,-1077C1081.8231,-1077 973.8231,-1077 973.8231,-1077 967.8231,-1077 961.8231,-1071 961.8231,-1065 961.8231,-1065 961.8231,-1053 961.8231,-1053 961.8231,-1047 967.8231,-1041 973.8231,-1041 973.8231,-1041 1081.8231,-1041 1081.8231,-1041 1087.8231,-1041 1093.8231,-1047 1093.8231,-1053 1093.8231,-1053 1093.8231,-1065 1093.8231,-1065 1093.8231,-1071 1087.8231,-1077 1081.8231,-1077"/>
<text text-anchor="middle" x="1027.8231" y="-1062" font-family="sans" font-size="10.00" fill="#000000">fastqc_read1: 43</text>
<text text-anchor="middle" x="1027.8231" y="-1051" font-family="sans" font-size="10.00" fill="#000000">[bqsr_round, sample, unit]</text>
</g>
<!-- 34 -->
<g id="node34" class="node">
<title>34</title>
<path fill="none" stroke="#56d8a2" stroke-width="2" d="M1128.8231,-969C1128.8231,-969 1076.8231,-969 1076.8231,-969 1070.8231,-969 1064.8231,-963 1064.8231,-957 1064.8231,-957 1064.8231,-945 1064.8231,-945 1064.8231,-939 1070.8231,-933 1076.8231,-933 1076.8231,-933 1128.8231,-933 1128.8231,-933 1134.8231,-933 1140.8231,-939 1140.8231,-945 1140.8231,-945 1140.8231,-957 1140.8231,-957 1140.8231,-963 1134.8231,-969 1128.8231,-969"/>
<text text-anchor="middle" x="1102.8231" y="-948.5" font-family="sans" font-size="10.00" fill="#000000">multiqc_dir: 1</text>
</g>
<!-- 11&#45;&gt;34 -->
<g id="edge13" class="edge">
<title>11&#45;&gt;34</title>
<path fill="none" stroke="#c0c0c0" stroke-width="2" d="M1040.5458,-1040.6793C1052.6324,-1023.2746 1070.9347,-996.9193 1084.5745,-977.278"/>
<polygon fill="#c0c0c0" stroke="#c0c0c0" stroke-width="2" points="1087.4591,-979.2603 1090.2883,-969.0502 1081.7095,-975.2675 1087.4591,-979.2603"/>
<text text-anchor="middle" x="1083.3231" y="-1001.3" font-family="Times,serif" font-size="14.00" fill="#000000">43</text>
</g>
<!-- 12 -->
<g id="node12" class="node">
<title>12</title>
<path fill="none" stroke="#56d87b" stroke-width="2" d="M1231.8231,-1077C1231.8231,-1077 1123.8231,-1077 1123.8231,-1077 1117.8231,-1077 1111.8231,-1071 1111.8231,-1065 1111.8231,-1065 1111.8231,-1053 1111.8231,-1053 1111.8231,-1047 1117.8231,-1041 1123.8231,-1041 1123.8231,-1041 1231.8231,-1041 1231.8231,-1041 1237.8231,-1041 1243.8231,-1047 1243.8231,-1053 1243.8231,-1053 1243.8231,-1065 1243.8231,-1065 1243.8231,-1071 1237.8231,-1077 1231.8231,-1077"/>
<text text-anchor="middle" x="1177.8231" y="-1062" font-family="sans" font-size="10.00" fill="#000000">fastqc_read2: 43</text>
<text text-anchor="middle" x="1177.8231" y="-1051" font-family="sans" font-size="10.00" fill="#000000">[bqsr_round, sample, unit]</text>
</g>
<!-- 12&#45;&gt;34 -->
<g id="edge14" class="edge">
<title>12&#45;&gt;34</title>
<path fill="none" stroke="#c0c0c0" stroke-width="2" d="M1165.1004,-1040.6793C1153.0138,-1023.2746 1134.7115,-996.9193 1121.0717,-977.278"/>
<polygon fill="#c0c0c0" stroke="#c0c0c0" stroke-width="2" points="1123.9367,-975.2675 1115.3579,-969.0502 1118.1871,-979.2603 1123.9367,-975.2675"/>
<text text-anchor="middle" x="1158.3231" y="-1001.3" font-family="Times,serif" font-size="14.00" fill="#000000">43</text>
</g>
<!-- 13 -->
<g id="node13" class="node">
<title>13</title>
<path fill="none" stroke="#56d8d0" stroke-width="2" d="M535.8231,-774C535.8231,-774 427.8231,-774 427.8231,-774 421.8231,-774 415.8231,-768 415.8231,-762 415.8231,-762 415.8231,-750 415.8231,-750 415.8231,-744 421.8231,-738 427.8231,-738 427.8231,-738 535.8231,-738 535.8231,-738 541.8231,-738 547.8231,-744 547.8231,-750 547.8231,-750 547.8231,-762 547.8231,-762 547.8231,-768 541.8231,-774 535.8231,-774"/>
<text text-anchor="middle" x="481.8231" y="-753.5" font-family="sans" font-size="10.00" fill="#000000">gather_scattered_vcfs: 32</text>
</g>
<!-- 32 -->
<g id="node32" class="node">
<title>32</title>
<path fill="none" stroke="#56a2d8" stroke-width="2" d="M536.3231,-687C536.3231,-687 427.3231,-687 427.3231,-687 421.3231,-687 415.3231,-681 415.3231,-675 415.3231,-675 415.3231,-663 415.3231,-663 415.3231,-657 421.3231,-651 427.3231,-651 427.3231,-651 536.3231,-651 536.3231,-651 542.3231,-651 548.3231,-657 548.3231,-663 548.3231,-663 548.3231,-675 548.3231,-675 548.3231,-681 542.3231,-687 536.3231,-687"/>
<text text-anchor="middle" x="481.8231" y="-666.5" font-family="sans" font-size="10.00" fill="#000000">mark_dp0_as_missing: 32</text>
</g>
<!-- 13&#45;&gt;32 -->
<g id="edge15" class="edge">
<title>13&#45;&gt;32</title>
<path fill="none" stroke="#c0c0c0" stroke-width="2" d="M481.8231,-737.9735C481.8231,-726.1918 481.8231,-710.5607 481.8231,-697.1581"/>
<polygon fill="#c0c0c0" stroke="#c0c0c0" stroke-width="2" points="485.3232,-697.0033 481.8231,-687.0034 478.3232,-697.0034 485.3232,-697.0033"/>
<text text-anchor="middle" x="489.3231" y="-708.8" font-family="Times,serif" font-size="14.00" fill="#000000">32</text>
</g>
<!-- 14 -->
<g id="node14" class="node">
<title>14</title>
<path fill="none" stroke="#59d856" stroke-width="2" stroke-dasharray="5,2" d="M523.3231,-1305C523.3231,-1305 462.3231,-1305 462.3231,-1305 456.3231,-1305 450.3231,-1299 450.3231,-1293 450.3231,-1293 450.3231,-1281 450.3231,-1281 450.3231,-1275 456.3231,-1269 462.3231,-1269 462.3231,-1269 523.3231,-1269 523.3231,-1269 529.3231,-1269 535.3231,-1275 535.3231,-1281 535.3231,-1281 535.3231,-1293 535.3231,-1293 535.3231,-1299 529.3231,-1305 523.3231,-1305"/>
<text text-anchor="middle" x="492.8231" y="-1284.5" font-family="sans" font-size="10.00" fill="#000000">genome_dict: 1</text>
</g>
<!-- 26 -->
<g id="node26" class="node">
<title>26</title>
<path fill="none" stroke="#d89556" stroke-width="2" d="M438.3231,-1077C438.3231,-1077 327.3231,-1077 327.3231,-1077 321.3231,-1077 315.3231,-1071 315.3231,-1065 315.3231,-1065 315.3231,-1053 315.3231,-1053 315.3231,-1047 321.3231,-1041 327.3231,-1041 327.3231,-1041 438.3231,-1041 438.3231,-1041 444.3231,-1041 450.3231,-1047 450.3231,-1053 450.3231,-1053 450.3231,-1065 450.3231,-1065 450.3231,-1071 444.3231,-1077 438.3231,-1077"/>
<text text-anchor="middle" x="382.8231" y="-1062" font-family="sans" font-size="10.00" fill="#000000">make_gvcf_sections: 1376</text>
<text text-anchor="middle" x="382.8231" y="-1051" font-family="sans" font-size="10.00" fill="#000000">[sg_or_chrom]</text>
</g>
<!-- 14&#45;&gt;26 -->
<g id="edge16" class="edge">
<title>14&#45;&gt;26</title>
<path fill="none" stroke="#c0c0c0" stroke-width="2" d="M494.5171,-1268.9188C496.5573,-1237.8802 496.9303,-1173.4219 470.8231,-1128 460.1955,-1109.5098 442.4849,-1094.183 425.727,-1082.7094"/>
<polygon fill="#c0c0c0" stroke="#c0c0c0" stroke-width="2" points="427.3782,-1079.6073 417.0931,-1077.0643 423.5475,-1085.4661 427.3782,-1079.6073"/>
<text text-anchor="middle" x="506.3231" y="-1185.8" font-family="Times,serif" font-size="14.00" fill="#000000">1376</text>
</g>
<!-- 15 -->
<g id="node15" class="node">
<title>15</title>
<path fill="none" stroke="#5663d8" stroke-width="2" stroke-dasharray="5,2" d="M595.8231,-1164C595.8231,-1164 529.8231,-1164 529.8231,-1164 523.8231,-1164 517.8231,-1158 517.8231,-1152 517.8231,-1152 517.8231,-1140 517.8231,-1140 517.8231,-1134 523.8231,-1128 529.8231,-1128 529.8231,-1128 595.8231,-1128 595.8231,-1128 601.8231,-1128 607.8231,-1134 607.8231,-1140 607.8231,-1140 607.8231,-1152 607.8231,-1152 607.8231,-1158 601.8231,-1164 595.8231,-1164"/>
<text text-anchor="middle" x="562.8231" y="-1143.5" font-family="sans" font-size="10.00" fill="#000000">genome_faidx: 1</text>
</g>
<!-- 21 -->
<g id="node21" class="node">
<title>21</title>
<path fill="none" stroke="#d6d856" stroke-width="2" d="M775.8231,-1077C775.8231,-1077 683.8231,-1077 683.8231,-1077 677.8231,-1077 671.8231,-1071 671.8231,-1065 671.8231,-1065 671.8231,-1053 671.8231,-1053 671.8231,-1047 677.8231,-1041 683.8231,-1041 683.8231,-1041 775.8231,-1041 775.8231,-1041 781.8231,-1041 787.8231,-1047 787.8231,-1053 787.8231,-1053 787.8231,-1065 787.8231,-1065 787.8231,-1071 781.8231,-1077 775.8231,-1077"/>
<text text-anchor="middle" x="729.8231" y="-1062" font-family="sans" font-size="10.00" fill="#000000">get_genome_length: 1</text>
<text text-anchor="middle" x="729.8231" y="-1051" font-family="sans" font-size="10.00" fill="#000000">[bqsr_round]</text>
</g>
<!-- 15&#45;&gt;21 -->
<g id="edge17" class="edge">
<title>15&#45;&gt;21</title>
<path fill="none" stroke="#c0c0c0" stroke-width="2" d="M597.4256,-1127.9735C623.176,-1114.5587 658.5058,-1096.1533 686.1931,-1081.7294"/>
<polygon fill="#c0c0c0" stroke="#c0c0c0" stroke-width="2" points="688.0133,-1084.7277 695.2649,-1077.0034 684.7791,-1078.5196 688.0133,-1084.7277"/>
<text text-anchor="middle" x="659.8231" y="-1098.8" font-family="Times,serif" font-size="14.00" fill="#000000">1</text>
</g>
<!-- 15&#45;&gt;26 -->
<g id="edge18" class="edge">
<title>15&#45;&gt;26</title>
<path fill="none" stroke="#c0c0c0" stroke-width="2" d="M545.7389,-1127.7367C534.6952,-1116.8749 519.4988,-1103.5838 503.8231,-1095 490.3403,-1087.617 475.163,-1081.5773 460.2317,-1076.699"/>
<polygon fill="#c0c0c0" stroke="#c0c0c0" stroke-width="2" points="461.0641,-1073.2924 450.4756,-1073.6585 458.9813,-1079.9754 461.0641,-1073.2924"/>
<text text-anchor="middle" x="539.3231" y="-1098.8" font-family="Times,serif" font-size="14.00" fill="#000000">1376</text>
</g>
<!-- 16 -->
<g id="node16" class="node">
<title>16</title>
<path fill="none" stroke="#a7d856" stroke-width="2" d="M551.3231,-861C551.3231,-861 412.3231,-861 412.3231,-861 406.3231,-861 400.3231,-855 400.3231,-849 400.3231,-849 400.3231,-837 400.3231,-837 400.3231,-831 406.3231,-825 412.3231,-825 412.3231,-825 551.3231,-825 551.3231,-825 557.3231,-825 563.3231,-831 563.3231,-837 563.3231,-837 563.3231,-849 563.3231,-849 563.3231,-855 557.3231,-861 551.3231,-861"/>
<text text-anchor="middle" x="481.8231" y="-840.5" font-family="sans" font-size="10.00" fill="#000000">genomics_db2vcf_scattered: 240</text>
</g>
<!-- 16&#45;&gt;13 -->
<g id="edge19" class="edge">
<title>16&#45;&gt;13</title>
<path fill="none" stroke="#c0c0c0" stroke-width="2" d="M481.8231,-824.9735C481.8231,-813.1918 481.8231,-797.5607 481.8231,-784.1581"/>
<polygon fill="#c0c0c0" stroke="#c0c0c0" stroke-width="2" points="485.3232,-784.0033 481.8231,-774.0034 478.3232,-784.0034 485.3232,-784.0033"/>
<text text-anchor="middle" x="492.8231" y="-795.8" font-family="Times,serif" font-size="14.00" fill="#000000">240</text>
</g>
<!-- 17 -->
<g id="node17" class="node">
<title>17</title>
<path fill="none" stroke="#d8a456" stroke-width="2" d="M197.8231,-969C197.8231,-969 27.8231,-969 27.8231,-969 21.8231,-969 15.8231,-963 15.8231,-957 15.8231,-957 15.8231,-945 15.8231,-945 15.8231,-939 21.8231,-933 27.8231,-933 27.8231,-933 197.8231,-933 197.8231,-933 203.8231,-933 209.8231,-939 209.8231,-945 209.8231,-945 209.8231,-957 209.8231,-957 209.8231,-963 203.8231,-969 197.8231,-969"/>
<text text-anchor="middle" x="112.8231" y="-954" font-family="sans" font-size="10.00" fill="#000000">genomics_db_import_chromosomes: 31</text>
<text text-anchor="middle" x="112.8231" y="-943" font-family="sans" font-size="10.00" fill="#000000">[chromo]</text>
</g>
<!-- 17&#45;&gt;16 -->
<g id="edge20" class="edge">
<title>17&#45;&gt;16</title>
<path fill="none" stroke="#c0c0c0" stroke-width="2" d="M169.3852,-932.9383C216.6669,-917.9986 285.9498,-896.4748 346.8231,-879 364.7086,-873.8656 383.9974,-868.5758 402.2425,-863.6846"/>
<polygon fill="#c0c0c0" stroke="#c0c0c0" stroke-width="2" points="403.2055,-867.0502 411.9643,-861.0893 401.3999,-860.287 403.2055,-867.0502"/>
<text text-anchor="middle" x="357.8231" y="-893.3" font-family="Times,serif" font-size="14.00" fill="#000000">176</text>
</g>
<!-- 18 -->
<g id="node18" class="node">
<title>18</title>
<path fill="none" stroke="#9fd856" stroke-width="2" d="M603.3231,-969C603.3231,-969 430.3231,-969 430.3231,-969 424.3231,-969 418.3231,-963 418.3231,-957 418.3231,-957 418.3231,-945 418.3231,-945 418.3231,-939 424.3231,-933 430.3231,-933 430.3231,-933 603.3231,-933 603.3231,-933 609.3231,-933 615.3231,-939 615.3231,-945 615.3231,-945 615.3231,-957 615.3231,-957 615.3231,-963 609.3231,-969 603.3231,-969"/>
<text text-anchor="middle" x="516.8231" y="-954" font-family="sans" font-size="10.00" fill="#000000">genomics_db_import_scaffold_groups: 1</text>
<text text-anchor="middle" x="516.8231" y="-943" font-family="sans" font-size="10.00" fill="#000000">[scaff_group]</text>
</g>
<!-- 18&#45;&gt;16 -->
<g id="edge21" class="edge">
<title>18&#45;&gt;16</title>
<path fill="none" stroke="#c0c0c0" stroke-width="2" d="M510.8858,-932.6793C505.3719,-915.6649 497.0859,-890.0967 490.7705,-870.6091"/>
<polygon fill="#c0c0c0" stroke="#c0c0c0" stroke-width="2" points="494.0852,-869.4841 487.6727,-861.0502 487.4261,-871.6421 494.0852,-869.4841"/>
<text text-anchor="middle" x="511.3231" y="-893.3" font-family="Times,serif" font-size="14.00" fill="#000000">64</text>
</g>
<!-- 19 -->
<g id="node19" class="node">
<title>19</title>
<path fill="none" stroke="#56d8c9" stroke-width="2" d="M775.3231,-969C775.3231,-969 700.3231,-969 700.3231,-969 694.3231,-969 688.3231,-963 688.3231,-957 688.3231,-957 688.3231,-945 688.3231,-945 688.3231,-939 694.3231,-933 700.3231,-933 700.3231,-933 775.3231,-933 775.3231,-933 781.3231,-933 787.3231,-939 787.3231,-945 787.3231,-945 787.3231,-957 787.3231,-957 787.3231,-963 781.3231,-969 775.3231,-969"/>
<text text-anchor="middle" x="737.8231" y="-948.5" font-family="sans" font-size="10.00" fill="#000000">get_ave_depths: 1</text>
</g>
<!-- 19&#45;&gt;37 -->
<g id="edge22" class="edge">
<title>19&#45;&gt;37</title>
<path fill="none" stroke="#c0c0c0" stroke-width="2" d="M742.4684,-932.7925C747.5018,-911.4346 754.8231,-874.8879 754.8231,-843 754.8231,-843 754.8231,-843 754.8231,-105 754.8231,-76.2322 730.7866,-53.1128 708.741,-37.9582"/>
<polygon fill="#c0c0c0" stroke="#c0c0c0" stroke-width="2" points="710.4178,-34.8734 700.1279,-32.3496 706.598,-40.7394 710.4178,-34.8734"/>
<text text-anchor="middle" x="758.8231" y="-491.3" font-family="Times,serif" font-size="14.00" fill="#000000">1</text>
</g>
<!-- 20 -->
<g id="node20" class="node">
<title>20</title>
<path fill="none" stroke="#56d8b9" stroke-width="2" stroke-dasharray="5,2" d="M592.3231,-1446C592.3231,-1446 533.3231,-1446 533.3231,-1446 527.3231,-1446 521.3231,-1440 521.3231,-1434 521.3231,-1434 521.3231,-1422 521.3231,-1422 521.3231,-1416 527.3231,-1410 533.3231,-1410 533.3231,-1410 592.3231,-1410 592.3231,-1410 598.3231,-1410 604.3231,-1416 604.3231,-1422 604.3231,-1422 604.3231,-1434 604.3231,-1434 604.3231,-1440 598.3231,-1446 592.3231,-1446"/>
<text text-anchor="middle" x="562.8231" y="-1425.5" font-family="sans" font-size="10.00" fill="#000000">get_genome: 1</text>
</g>
<!-- 20&#45;&gt;6 -->
<g id="edge23" class="edge">
<title>20&#45;&gt;6</title>
<path fill="none" stroke="#c0c0c0" stroke-width="2" stroke-dasharray="5,2" d="M604.388,-1412.3457C644.3968,-1397.2774 704.8245,-1374.5189 746.6251,-1358.7759"/>
<polygon fill="#c0c0c0" stroke="#c0c0c0" stroke-width="2" points="747.911,-1362.0316 756.0357,-1355.2316 745.4437,-1355.4808 747.911,-1362.0316"/>
<text text-anchor="middle" x="695.8231" y="-1380.8" font-family="Times,serif" font-size="14.00" fill="#000000">1</text>
</g>
<!-- 20&#45;&gt;14 -->
<g id="edge24" class="edge">
<title>20&#45;&gt;14</title>
<path fill="none" stroke="#c0c0c0" stroke-width="2" stroke-dasharray="5,2" d="M551.1997,-1409.9321C547.7176,-1404.2728 543.9865,-1397.95 540.8231,-1392 527.1765,-1366.3327 513.5865,-1336.0477 504.3688,-1314.6152"/>
<polygon fill="#c0c0c0" stroke="#c0c0c0" stroke-width="2" points="507.4762,-1312.9789 500.3356,-1305.1519 501.0366,-1315.7235 507.4762,-1312.9789"/>
<text text-anchor="middle" x="544.8231" y="-1380.8" font-family="Times,serif" font-size="14.00" fill="#000000">1</text>
</g>
<!-- 20&#45;&gt;15 -->
<g id="edge25" class="edge">
<title>20&#45;&gt;15</title>
<path fill="none" stroke="#c0c0c0" stroke-width="2" stroke-dasharray="5,2" d="M562.8231,-1409.9306C562.8231,-1362.1938 562.8231,-1232.4254 562.8231,-1174.5391"/>
<polygon fill="#c0c0c0" stroke="#c0c0c0" stroke-width="2" points="566.3232,-1174.2838 562.8231,-1164.2838 559.3232,-1174.2839 566.3232,-1174.2838"/>
<text text-anchor="middle" x="566.8231" y="-1283.3" font-family="Times,serif" font-size="14.00" fill="#000000">1</text>
</g>
<!-- 20&#45;&gt;16 -->
<g id="edge26" class="edge">
<title>20&#45;&gt;16</title>
<path fill="none" stroke="#c0c0c0" stroke-width="2" d="M595.3022,-1409.9924C617.837,-1394.8605 643.8231,-1370.9238 643.8231,-1341 643.8231,-1341 643.8231,-1341 643.8231,-951 643.8231,-907.8809 603.5989,-880.9177 563.2374,-864.716"/>
<polygon fill="#c0c0c0" stroke="#c0c0c0" stroke-width="2" points="564.4128,-861.4184 553.8221,-861.1232 561.9172,-867.9584 564.4128,-861.4184"/>
<text text-anchor="middle" x="654.8231" y="-1142.3" font-family="Times,serif" font-size="14.00" fill="#000000">240</text>
</g>
<!-- 20&#45;&gt;26 -->
<g id="edge27" class="edge">
<title>20&#45;&gt;26</title>
<path fill="none" stroke="#c0c0c0" stroke-width="2" d="M521.0863,-1424.7434C405.1776,-1415.1442 87.8231,-1384.8573 87.8231,-1341 87.8231,-1341 87.8231,-1341 87.8231,-1146 87.8231,-1100.6727 217.5721,-1077.2021 304.9724,-1066.5338"/>
<polygon fill="#c0c0c0" stroke="#c0c0c0" stroke-width="2" points="305.6265,-1069.9809 315.1441,-1065.3263 304.8012,-1063.0297 305.6265,-1069.9809"/>
<text text-anchor="middle" x="102.3231" y="-1229.3" font-family="Times,serif" font-size="14.00" fill="#000000">1376</text>
</g>
<!-- 21&#45;&gt;19 -->
<g id="edge28" class="edge">
<title>21&#45;&gt;19</title>
<path fill="none" stroke="#c0c0c0" stroke-width="2" d="M731.1802,-1040.6793C732.4289,-1023.821 734.2997,-998.5651 735.7381,-979.147"/>
<polygon fill="#c0c0c0" stroke="#c0c0c0" stroke-width="2" points="739.2377,-979.2814 736.486,-969.0502 732.2568,-978.7643 739.2377,-979.2814"/>
<text text-anchor="middle" x="738.8231" y="-1001.3" font-family="Times,serif" font-size="14.00" fill="#000000">1</text>
</g>
<!-- 22 -->
<g id="node22" class="node">
<title>22</title>
<path fill="none" stroke="#56d8a9" stroke-width="2" d="M429.3231,-513C429.3231,-513 344.3231,-513 344.3231,-513 338.3231,-513 332.3231,-507 332.3231,-501 332.3231,-501 332.3231,-489 332.3231,-489 332.3231,-483 338.3231,-477 344.3231,-477 344.3231,-477 429.3231,-477 429.3231,-477 435.3231,-477 441.3231,-483 441.3231,-489 441.3231,-489 441.3231,-501 441.3231,-501 441.3231,-507 435.3231,-513 429.3231,-513"/>
<text text-anchor="middle" x="386.8231" y="-492.5" font-family="sans" font-size="10.00" fill="#000000">hard_filter_indels: 32</text>
</g>
<!-- 22&#45;&gt;5 -->
<g id="edge29" class="edge">
<title>22&#45;&gt;5</title>
<path fill="none" stroke="#c0c0c0" stroke-width="2" d="M408.1648,-476.9735C423.3562,-464.1419 443.9533,-446.7443 460.6604,-432.6326"/>
<polygon fill="#c0c0c0" stroke="#c0c0c0" stroke-width="2" points="463.1277,-435.13 468.5088,-426.0034 458.6108,-429.7823 463.1277,-435.13"/>
<text text-anchor="middle" x="451.3231" y="-447.8" font-family="Times,serif" font-size="14.00" fill="#000000">32</text>
</g>
<!-- 23 -->
<g id="node23" class="node">
<title>23</title>
<path fill="none" stroke="#56d88a" stroke-width="2" d="M551.8231,-513C551.8231,-513 471.8231,-513 471.8231,-513 465.8231,-513 459.8231,-507 459.8231,-501 459.8231,-501 459.8231,-489 459.8231,-489 459.8231,-483 465.8231,-477 471.8231,-477 471.8231,-477 551.8231,-477 551.8231,-477 557.8231,-477 563.8231,-483 563.8231,-489 563.8231,-489 563.8231,-501 563.8231,-501 563.8231,-507 557.8231,-513 551.8231,-513"/>
<text text-anchor="middle" x="511.8231" y="-492.5" font-family="sans" font-size="10.00" fill="#000000">hard_filter_snps: 32</text>
</g>
<!-- 23&#45;&gt;5 -->
<g id="edge30" class="edge">
<title>23&#45;&gt;5</title>
<path fill="none" stroke="#c0c0c0" stroke-width="2" d="M507.2647,-476.9735C504.2559,-465.0751 500.2543,-449.2508 496.843,-435.7606"/>
<polygon fill="#c0c0c0" stroke="#c0c0c0" stroke-width="2" points="500.2205,-434.8401 494.3757,-426.0034 493.4341,-436.5563 500.2205,-434.8401"/>
<text text-anchor="middle" x="509.3231" y="-447.8" font-family="Times,serif" font-size="14.00" fill="#000000">32</text>
</g>
<!-- 24&#45;&gt;2 -->
<g id="edge31" class="edge">
<title>24&#45;&gt;2</title>
<path fill="none" stroke="#c0c0c0" stroke-width="2" d="M632.1111,-302.8505C647.968,-285.8696 670.0193,-258.9851 680.8231,-231 686.1409,-217.2253 688.0506,-200.9167 688.561,-187.3071"/>
<polygon fill="#c0c0c0" stroke="#c0c0c0" stroke-width="2" points="692.064,-187.1205 688.7088,-177.071 685.0647,-187.0194 692.064,-187.1205"/>
<text text-anchor="middle" x="678.3231" y="-263.3" font-family="Times,serif" font-size="14.00" fill="#000000">32</text>
</g>
<!-- 24&#45;&gt;3 -->
<g id="edge32" class="edge">
<title>24&#45;&gt;3</title>
<path fill="none" stroke="#c0c0c0" stroke-width="2" d="M610.0911,-302.6793C606.6411,-285.7429 601.4646,-260.3311 597.5019,-240.8777"/>
<polygon fill="#c0c0c0" stroke="#c0c0c0" stroke-width="2" points="600.9257,-240.1503 595.5,-231.0502 594.0665,-241.5476 600.9257,-240.1503"/>
<text text-anchor="middle" x="613.3231" y="-263.3" font-family="Times,serif" font-size="14.00" fill="#000000">32</text>
</g>
<!-- 25 -->
<g id="node25" class="node">
<title>25</title>
<path fill="none" stroke="#56b9d8" stroke-width="2" d="M449.3231,-1164C449.3231,-1164 316.3231,-1164 316.3231,-1164 310.3231,-1164 304.3231,-1158 304.3231,-1152 304.3231,-1152 304.3231,-1140 304.3231,-1140 304.3231,-1134 310.3231,-1128 316.3231,-1128 316.3231,-1128 449.3231,-1128 449.3231,-1128 455.3231,-1128 461.3231,-1134 461.3231,-1140 461.3231,-1140 461.3231,-1152 461.3231,-1152 461.3231,-1158 455.3231,-1164 449.3231,-1164"/>
<text text-anchor="middle" x="382.8231" y="-1149" font-family="sans" font-size="10.00" fill="#000000">make_chromo_interval_lists: 31</text>
<text text-anchor="middle" x="382.8231" y="-1138" font-family="sans" font-size="10.00" fill="#000000">[bqsr_round, chromo]</text>
</g>
<!-- 25&#45;&gt;26 -->
<g id="edge33" class="edge">
<title>25&#45;&gt;26</title>
<path fill="none" stroke="#c0c0c0" stroke-width="2" d="M382.8231,-1127.9735C382.8231,-1116.1918 382.8231,-1100.5607 382.8231,-1087.1581"/>
<polygon fill="#c0c0c0" stroke="#c0c0c0" stroke-width="2" points="386.3232,-1087.0033 382.8231,-1077.0034 379.3232,-1087.0034 386.3232,-1087.0033"/>
<text text-anchor="middle" x="397.3231" y="-1098.8" font-family="Times,serif" font-size="14.00" fill="#000000">1333</text>
</g>
<!-- 26&#45;&gt;10 -->
<g id="edge34" class="edge">
<title>26&#45;&gt;10</title>
<path fill="none" stroke="#c0c0c0" stroke-width="2" d="M314.9538,-1053.0682C216.7317,-1042.8706 42.7471,-1018.192 6.8231,-969 -2.6131,-956.0787 -1.8002,-946.4774 6.8231,-933 9.6641,-928.5598 13.2074,-924.6594 17.2049,-921.2345"/>
<polygon fill="#c0c0c0" stroke="#c0c0c0" stroke-width="2" points="19.4046,-923.9614 25.387,-915.2172 15.2573,-918.3222 19.4046,-923.9614"/>
<text text-anchor="middle" x="139.3231" y="-1001.3" font-family="Times,serif" font-size="14.00" fill="#000000">1376</text>
</g>
<!-- 26&#45;&gt;17 -->
<g id="edge35" class="edge">
<title>26&#45;&gt;17</title>
<path fill="none" stroke="#c0c0c0" stroke-width="2" d="M337.6312,-1040.9232C290.8084,-1022.1941 217.6069,-992.9135 167.541,-972.8872"/>
<polygon fill="#c0c0c0" stroke="#c0c0c0" stroke-width="2" points="168.7471,-969.6 158.1625,-969.1357 166.1473,-976.0994 168.7471,-969.6"/>
<text text-anchor="middle" x="302.3231" y="-1001.3" font-family="Times,serif" font-size="14.00" fill="#000000">1333</text>
</g>
<!-- 26&#45;&gt;18 -->
<g id="edge36" class="edge">
<title>26&#45;&gt;18</title>
<path fill="none" stroke="#c0c0c0" stroke-width="2" d="M405.2517,-1040.9232C427.4751,-1023.0118 461.672,-995.4501 486.3487,-975.5614"/>
<polygon fill="#c0c0c0" stroke="#c0c0c0" stroke-width="2" points="488.7317,-978.1361 494.3213,-969.1357 484.339,-972.6859 488.7317,-978.1361"/>
<text text-anchor="middle" x="476.3231" y="-1001.3" font-family="Times,serif" font-size="14.00" fill="#000000">43</text>
</g>
<!-- 27 -->
<g id="node27" class="node">
<title>27</title>
<path fill="none" stroke="#61d856" stroke-width="2" d="M430.3231,-600C430.3231,-600 351.3231,-600 351.3231,-600 345.3231,-600 339.3231,-594 339.3231,-588 339.3231,-588 339.3231,-576 339.3231,-576 339.3231,-570 345.3231,-564 351.3231,-564 351.3231,-564 430.3231,-564 430.3231,-564 436.3231,-564 442.3231,-570 442.3231,-576 442.3231,-576 442.3231,-588 442.3231,-588 442.3231,-594 436.3231,-600 430.3231,-600"/>
<text text-anchor="middle" x="390.8231" y="-579.5" font-family="sans" font-size="10.00" fill="#000000">make_indel_vcf: 32</text>
</g>
<!-- 27&#45;&gt;22 -->
<g id="edge37" class="edge">
<title>27&#45;&gt;22</title>
<path fill="none" stroke="#c0c0c0" stroke-width="2" d="M389.9943,-563.9735C389.4526,-552.1918 388.7339,-536.5607 388.1177,-523.1581"/>
<polygon fill="#c0c0c0" stroke="#c0c0c0" stroke-width="2" points="391.6065,-522.832 387.6508,-513.0034 384.6139,-523.1536 391.6065,-522.832"/>
<text text-anchor="middle" x="396.3231" y="-534.8" font-family="Times,serif" font-size="14.00" fill="#000000">32</text>
</g>
<!-- 28 -->
<g id="node28" class="node">
<title>28</title>
<path fill="none" stroke="#d85e56" stroke-width="2" d="M273.8231,-1164C273.8231,-1164 127.8231,-1164 127.8231,-1164 121.8231,-1164 115.8231,-1158 115.8231,-1152 115.8231,-1152 115.8231,-1140 115.8231,-1140 115.8231,-1134 121.8231,-1128 127.8231,-1128 127.8231,-1128 273.8231,-1128 273.8231,-1128 279.8231,-1128 285.8231,-1134 285.8231,-1140 285.8231,-1140 285.8231,-1152 285.8231,-1152 285.8231,-1158 279.8231,-1164 273.8231,-1164"/>
<text text-anchor="middle" x="200.8231" y="-1149" font-family="sans" font-size="10.00" fill="#000000">make_scaff_group_interval_lists: 1</text>
<text text-anchor="middle" x="200.8231" y="-1138" font-family="sans" font-size="10.00" fill="#000000">[bqsr_round, scaff_group]</text>
</g>
<!-- 28&#45;&gt;26 -->
<g id="edge38" class="edge">
<title>28&#45;&gt;26</title>
<path fill="none" stroke="#c0c0c0" stroke-width="2" d="M238.5336,-1127.9735C266.841,-1114.442 305.7705,-1095.8328 336.0595,-1081.354"/>
<polygon fill="#c0c0c0" stroke="#c0c0c0" stroke-width="2" points="337.6482,-1084.474 345.1609,-1077.0034 334.6292,-1078.1585 337.6482,-1084.474"/>
<text text-anchor="middle" x="309.3231" y="-1098.8" font-family="Times,serif" font-size="14.00" fill="#000000">43</text>
</g>
<!-- 29 -->
<g id="node29" class="node">
<title>29</title>
<path fill="none" stroke="#56d85b" stroke-width="2" d="M387.8231,-969C387.8231,-969 239.8231,-969 239.8231,-969 233.8231,-969 227.8231,-963 227.8231,-957 227.8231,-957 227.8231,-945 227.8231,-945 227.8231,-939 233.8231,-933 239.8231,-933 239.8231,-933 387.8231,-933 387.8231,-933 393.8231,-933 399.8231,-939 399.8231,-945 399.8231,-945 399.8231,-957 399.8231,-957 399.8231,-963 393.8231,-969 387.8231,-969"/>
<text text-anchor="middle" x="313.8231" y="-954" font-family="sans" font-size="10.00" fill="#000000">make_scatter_interval_lists: 240</text>
<text text-anchor="middle" x="313.8231" y="-943" font-family="sans" font-size="10.00" fill="#000000">[bqsr_round, scatter, sg_or_chrom]</text>
</g>
<!-- 29&#45;&gt;16 -->
<g id="edge39" class="edge">
<title>29&#45;&gt;16</title>
<path fill="none" stroke="#c0c0c0" stroke-width="2" d="M341.9425,-932.9232C370.1681,-914.7782 413.7994,-886.7295 444.8209,-866.7871"/>
<polygon fill="#c0c0c0" stroke="#c0c0c0" stroke-width="2" points="447.0928,-869.4875 453.6119,-861.1357 443.3075,-863.5992 447.0928,-869.4875"/>
<text text-anchor="middle" x="432.8231" y="-893.3" font-family="Times,serif" font-size="14.00" fill="#000000">240</text>
</g>
<!-- 30 -->
<g id="node30" class="node">
<title>30</title>
<path fill="none" stroke="#ced856" stroke-width="2" d="M547.8231,-600C547.8231,-600 473.8231,-600 473.8231,-600 467.8231,-600 461.8231,-594 461.8231,-588 461.8231,-588 461.8231,-576 461.8231,-576 461.8231,-570 467.8231,-564 473.8231,-564 473.8231,-564 547.8231,-564 547.8231,-564 553.8231,-564 559.8231,-570 559.8231,-576 559.8231,-576 559.8231,-588 559.8231,-588 559.8231,-594 553.8231,-600 547.8231,-600"/>
<text text-anchor="middle" x="510.8231" y="-579.5" font-family="sans" font-size="10.00" fill="#000000">make_snp_vcf: 32</text>
</g>
<!-- 30&#45;&gt;23 -->
<g id="edge40" class="edge">
<title>30&#45;&gt;23</title>
<path fill="none" stroke="#c0c0c0" stroke-width="2" d="M511.0303,-563.9735C511.1657,-552.1918 511.3454,-536.5607 511.4994,-523.1581"/>
<polygon fill="#c0c0c0" stroke="#c0c0c0" stroke-width="2" points="515.0009,-523.043 511.6162,-513.0034 508.0014,-522.9624 515.0009,-523.043"/>
<text text-anchor="middle" x="518.3231" y="-534.8" font-family="Times,serif" font-size="14.00" fill="#000000">32</text>
</g>
<!-- 33 -->
<g id="node33" class="node">
<title>33</title>
<path fill="none" stroke="#d8c356" stroke-width="2" d="M905.8231,-1164C905.8231,-1164 823.8231,-1164 823.8231,-1164 817.8231,-1164 811.8231,-1158 811.8231,-1152 811.8231,-1152 811.8231,-1140 811.8231,-1140 811.8231,-1134 817.8231,-1128 823.8231,-1128 823.8231,-1128 905.8231,-1128 905.8231,-1128 911.8231,-1128 917.8231,-1134 917.8231,-1140 917.8231,-1140 917.8231,-1152 917.8231,-1152 917.8231,-1158 911.8231,-1164 905.8231,-1164"/>
<text text-anchor="middle" x="864.8231" y="-1143.5" font-family="sans" font-size="10.00" fill="#000000">mark_duplicates: 43</text>
</g>
<!-- 31&#45;&gt;33 -->
<g id="edge41" class="edge">
<title>31&#45;&gt;33</title>
<path fill="none" stroke="#c0c0c0" stroke-width="2" d="M864.8231,-1214.9735C864.8231,-1203.1918 864.8231,-1187.5607 864.8231,-1174.1581"/>
<polygon fill="#c0c0c0" stroke="#c0c0c0" stroke-width="2" points="868.3232,-1174.0033 864.8231,-1164.0034 861.3232,-1174.0034 868.3232,-1174.0033"/>
<text text-anchor="middle" x="872.3231" y="-1185.8" font-family="Times,serif" font-size="14.00" fill="#000000">43</text>
</g>
<!-- 32&#45;&gt;27 -->
<g id="edge42" class="edge">
<title>32&#45;&gt;27</title>
<path fill="none" stroke="#c0c0c0" stroke-width="2" d="M462.9678,-650.9735C449.6683,-638.2586 431.6792,-621.0603 416.9916,-607.0183"/>
<polygon fill="#c0c0c0" stroke="#c0c0c0" stroke-width="2" points="419.301,-604.384 409.6542,-600.0034 414.4637,-609.4437 419.301,-604.384"/>
<text text-anchor="middle" x="448.3231" y="-621.8" font-family="Times,serif" font-size="14.00" fill="#000000">32</text>
</g>
<!-- 32&#45;&gt;30 -->
<g id="edge43" class="edge">
<title>32&#45;&gt;30</title>
<path fill="none" stroke="#c0c0c0" stroke-width="2" d="M487.8319,-650.9735C491.798,-639.0751 497.0728,-623.2508 501.5695,-609.7606"/>
<polygon fill="#c0c0c0" stroke="#c0c0c0" stroke-width="2" points="504.98,-610.597 504.822,-600.0034 498.3392,-608.3834 504.98,-610.597"/>
<text text-anchor="middle" x="505.3231" y="-621.8" font-family="Times,serif" font-size="14.00" fill="#000000">32</text>
</g>
<!-- 33&#45;&gt;7 -->
<g id="edge44" class="edge">
<title>33&#45;&gt;7</title>
<path fill="none" stroke="#c0c0c0" stroke-width="2" d="M856.0277,-1127.8515C849.5909,-1114.1085 840.9478,-1094.6466 834.8231,-1077 829.9063,-1062.8336 825.5444,-1046.7235 822.244,-1033.3392"/>
<polygon fill="#c0c0c0" stroke="#c0c0c0" stroke-width="2" points="825.5675,-1032.1886 819.8344,-1023.2789 818.7601,-1033.8192 825.5675,-1032.1886"/>
<text text-anchor="middle" x="855.3231" y="-1098.8" font-family="Times,serif" font-size="14.00" fill="#000000">43</text>
</g>
<!-- 33&#45;&gt;26 -->
<g id="edge45" class="edge">
<title>33&#45;&gt;26</title>
<path fill="none" stroke="#c0c0c0" stroke-width="2" d="M811.7295,-1130.2883C772.316,-1119.1073 717.0922,-1104.4492 667.8231,-1095 598.2839,-1081.6633 518.2183,-1072.0468 460.6904,-1066.1262"/>
<polygon fill="#c0c0c0" stroke="#c0c0c0" stroke-width="2" points="460.8816,-1062.6277 450.5792,-1065.0997 460.1745,-1069.5919 460.8816,-1062.6277"/>
<text text-anchor="middle" x="747.3231" y="-1098.8" font-family="Times,serif" font-size="14.00" fill="#000000">1376</text>
</g>
<!-- 33&#45;&gt;34 -->
<g id="edge46" class="edge">
<title>33&#45;&gt;34</title>
<path fill="none" stroke="#c0c0c0" stroke-width="2" d="M917.9142,-1144.6442C1013.9951,-1140.9497 1210.6957,-1127.2801 1252.8231,-1077 1290.8148,-1031.6559 1207.9336,-989.7622 1150.8935,-967.5631"/>
<polygon fill="#c0c0c0" stroke="#c0c0c0" stroke-width="2" points="1151.8729,-964.1911 1141.2818,-963.9112 1149.3867,-970.7348 1151.8729,-964.1911"/>
<text text-anchor="middle" x="1269.3231" y="-1055.3" font-family="Times,serif" font-size="14.00" fill="#000000">43</text>
</g>
<!-- 35 -->
<g id="node35" class="node">
<title>35</title>
<path fill="none" stroke="#56a9d8" stroke-width="2" d="M931.8231,-1077C931.8231,-1077 855.8231,-1077 855.8231,-1077 849.8231,-1077 843.8231,-1071 843.8231,-1065 843.8231,-1065 843.8231,-1053 843.8231,-1053 843.8231,-1047 849.8231,-1041 855.8231,-1041 855.8231,-1041 931.8231,-1041 931.8231,-1041 937.8231,-1041 943.8231,-1047 943.8231,-1053 943.8231,-1053 943.8231,-1065 943.8231,-1065 943.8231,-1071 937.8231,-1077 931.8231,-1077"/>
<text text-anchor="middle" x="893.8231" y="-1056.5" font-family="sans" font-size="10.00" fill="#000000">samtools_stats: 43</text>
</g>
<!-- 33&#45;&gt;35 -->
<g id="edge47" class="edge">
<title>33&#45;&gt;35</title>
<path fill="none" stroke="#c0c0c0" stroke-width="2" d="M870.8319,-1127.9735C874.798,-1116.0751 880.0728,-1100.2508 884.5695,-1086.7606"/>
<polygon fill="#c0c0c0" stroke="#c0c0c0" stroke-width="2" points="887.98,-1087.597 887.822,-1077.0034 881.3392,-1085.3834 887.98,-1087.597"/>
<text text-anchor="middle" x="888.3231" y="-1098.8" font-family="Times,serif" font-size="14.00" fill="#000000">43</text>
</g>
<!-- 34&#45;&gt;37 -->
<g id="edge48" class="edge">
<title>34&#45;&gt;37</title>
<path fill="none" stroke="#c0c0c0" stroke-width="2" d="M1076.5614,-932.7902C1052.245,-913.5645 1019.8231,-880.8359 1019.8231,-843 1019.8231,-843 1019.8231,-843 1019.8231,-105 1019.8231,-41.6732 799.635,-24.0311 710.0559,-19.4741"/>
<polygon fill="#c0c0c0" stroke="#c0c0c0" stroke-width="2" points="710.2084,-15.9775 700.0516,-18.9923 709.8716,-22.9694 710.2084,-15.9775"/>
<text text-anchor="middle" x="1023.8231" y="-491.3" font-family="Times,serif" font-size="14.00" fill="#000000">1</text>
</g>
<!-- 35&#45;&gt;19 -->
<g id="edge49" class="edge">
<title>35&#45;&gt;19</title>
<path fill="none" stroke="#c0c0c0" stroke-width="2" d="M891.932,-1040.7589C889.2785,-1024.441 882.9347,-1000.9993 867.8231,-987 857.1808,-977.1411 826.3916,-968.3931 797.4485,-961.9898"/>
<polygon fill="#c0c0c0" stroke="#c0c0c0" stroke-width="2" points="797.8349,-958.4933 787.324,-959.8247 796.371,-965.3386 797.8349,-958.4933"/>
<text text-anchor="middle" x="894.3231" y="-1001.3" font-family="Times,serif" font-size="14.00" fill="#000000">43</text>
</g>
<!-- 35&#45;&gt;34 -->
<g id="edge50" class="edge">
<title>35&#45;&gt;34</title>
<path fill="none" stroke="#c0c0c0" stroke-width="2" d="M928.805,-1040.9232C964.5218,-1022.4667 1020.0678,-993.7635 1058.7641,-973.7673"/>
<polygon fill="#c0c0c0" stroke="#c0c0c0" stroke-width="2" points="1060.4499,-976.836 1067.7271,-969.1357 1057.2363,-970.6172 1060.4499,-976.836"/>
<text text-anchor="middle" x="1036.3231" y="-1001.3" font-family="Times,serif" font-size="14.00" fill="#000000">43</text>
</g>
<!-- 36 -->
<g id="node36" class="node">
<title>36</title>
<path fill="none" stroke="#70d856" stroke-width="2" d="M1292.8231,-1359C1292.8231,-1359 1184.8231,-1359 1184.8231,-1359 1178.8231,-1359 1172.8231,-1353 1172.8231,-1347 1172.8231,-1347 1172.8231,-1335 1172.8231,-1335 1172.8231,-1329 1178.8231,-1323 1184.8231,-1323 1184.8231,-1323 1292.8231,-1323 1292.8231,-1323 1298.8231,-1323 1304.8231,-1329 1304.8231,-1335 1304.8231,-1335 1304.8231,-1347 1304.8231,-1347 1304.8231,-1353 1298.8231,-1359 1292.8231,-1359"/>
<text text-anchor="middle" x="1238.8231" y="-1344" font-family="sans" font-size="10.00" fill="#000000">trim_reads_pe: 43</text>
<text text-anchor="middle" x="1238.8231" y="-1333" font-family="sans" font-size="10.00" fill="#000000">[bqsr_round, sample, unit]</text>
</g>
<!-- 36&#45;&gt;31 -->
<g id="edge51" class="edge">
<title>36&#45;&gt;31</title>
<path fill="none" stroke="#c0c0c0" stroke-width="2" d="M1176.2239,-1322.9232C1103.1875,-1301.8325 983.8161,-1267.3616 916.0498,-1247.7928"/>
<polygon fill="#c0c0c0" stroke="#c0c0c0" stroke-width="2" points="917.0161,-1244.4288 906.4376,-1245.017 915.074,-1251.1541 917.0161,-1244.4288"/>
<text text-anchor="middle" x="1114.3231" y="-1283.3" font-family="Times,serif" font-size="14.00" fill="#000000">43</text>
</g>
<!-- 36&#45;&gt;34 -->
<g id="edge52" class="edge">
<title>36&#45;&gt;34</title>
<path fill="none" stroke="#c0c0c0" stroke-width="2" d="M1265.4012,-1322.8618C1290.0106,-1303.6919 1322.8231,-1271.0058 1322.8231,-1233 1322.8231,-1233 1322.8231,-1233 1322.8231,-1059 1322.8231,-1008.4661 1279.7396,-1010.1556 1234.8231,-987 1208.6353,-973.4995 1176.8369,-964.6303 1151.0122,-959.0737"/>
<polygon fill="#c0c0c0" stroke="#c0c0c0" stroke-width="2" points="1151.5705,-955.6154 1141.071,-957.033 1150.1629,-962.4724 1151.5705,-955.6154"/>
<text text-anchor="middle" x="1330.3231" y="-1142.3" font-family="Times,serif" font-size="14.00" fill="#000000">43</text>
</g>
</g>
</svg>
