<?xml version="1.0" encoding="UTF-8" standalone="no"?>
<!DOCTYPE svg PUBLIC "-//W3C//DTD SVG 1.1//EN"
 "http://www.w3.org/Graphics/SVG/1.1/DTD/svg11.dtd">
<!-- Generated by graphviz version 2.50.0 (0)
 -->
<!-- Title: snakemake_dag Pages: 1 -->
<svg width="1052pt" height="476pt"
 viewBox="0.00 0.00 1051.82 476.00" xmlns="http://www.w3.org/2000/svg" xmlns:xlink="http://www.w3.org/1999/xlink">
<g id="graph0" class="graph" transform="scale(1 1) rotate(0) translate(4 472)">
<title>snakemake_dag</title>
<polygon fill="white" stroke="transparent" points="-4,4 -4,-472 1047.82,-472 1047.82,4 -4,4"/>
<!-- 0 -->
<g id="node1" class="node">
<title>0</title>
<path fill="none" stroke="#d8bc56" stroke-width="2" stroke-dasharray="5,2" d="M540.91,-36C540.91,-36 494.91,-36 494.91,-36 488.91,-36 482.91,-30 482.91,-24 482.91,-24 482.91,-12 482.91,-12 482.91,-6 488.91,0 494.91,0 494.91,0 540.91,0 540.91,0 546.91,0 552.91,-6 552.91,-12 552.91,-12 552.91,-24 552.91,-24 552.91,-30 546.91,-36 540.91,-36"/>
<text text-anchor="middle" x="517.91" y="-15.5" font-family="sans" font-size="10.00">concat_vcfs</text>
</g>
<!-- 1 -->
<g id="node2" class="node">
<title>1</title>
<path fill="none" stroke="#d88d56" stroke-width="2" stroke-dasharray="5,2" d="M497.41,-108C497.41,-108 392.41,-108 392.41,-108 386.41,-108 380.41,-102 380.41,-96 380.41,-96 380.41,-84 380.41,-84 380.41,-78 386.41,-72 392.41,-72 392.41,-72 497.41,-72 497.41,-72 503.41,-72 509.41,-78 509.41,-84 509.41,-84 509.41,-96 509.41,-96 509.41,-102 503.41,-108 497.41,-108"/>
<text text-anchor="middle" x="444.91" y="-87.5" font-family="sans" font-size="10.00">vcf_from_gdb_by_chromo</text>
</g>
<!-- 1&#45;&gt;0 -->
<g id="edge1" class="edge">
<title>1&#45;&gt;0</title>
<path fill="none" stroke="grey" stroke-width="2" d="M462.95,-71.7C471.97,-63.05 483.02,-52.45 492.85,-43.03"/>
<polygon fill="grey" stroke="grey" stroke-width="2" points="495.27,-45.55 500.07,-36.1 490.43,-40.5 495.27,-45.55"/>
</g>
<!-- 2 -->
<g id="node3" class="node">
<title>2</title>
<path fill="none" stroke="#568ad8" stroke-width="2" stroke-dasharray="5,2" d="M497.91,-180C497.91,-180 361.91,-180 361.91,-180 355.91,-180 349.91,-174 349.91,-168 349.91,-168 349.91,-156 349.91,-156 349.91,-150 355.91,-144 361.91,-144 361.91,-144 497.91,-144 497.91,-144 503.91,-144 509.91,-150 509.91,-156 509.91,-156 509.91,-168 509.91,-168 509.91,-174 503.91,-180 497.91,-180"/>
<text text-anchor="middle" x="429.91" y="-159.5" font-family="sans" font-size="10.00">import_genomics_db_by_chromo</text>
</g>
<!-- 2&#45;&gt;1 -->
<g id="edge3" class="edge">
<title>2&#45;&gt;1</title>
<path fill="none" stroke="grey" stroke-width="2" d="M433.61,-143.7C435.27,-135.98 437.25,-126.71 439.1,-118.11"/>
<polygon fill="grey" stroke="grey" stroke-width="2" points="442.57,-118.62 441.24,-108.1 435.72,-117.15 442.57,-118.62"/>
</g>
<!-- 3 -->
<g id="node4" class="node">
<title>3</title>
<path fill="none" stroke="#bed856" stroke-width="2" stroke-dasharray="5,2" d="M185.41,-252C185.41,-252 78.41,-252 78.41,-252 72.41,-252 66.41,-246 66.41,-240 66.41,-240 66.41,-228 66.41,-228 66.41,-222 72.41,-216 78.41,-216 78.41,-216 185.41,-216 185.41,-216 191.41,-216 197.41,-222 197.41,-228 197.41,-228 197.41,-240 197.41,-240 197.41,-246 191.41,-252 185.41,-252"/>
<text text-anchor="middle" x="131.91" y="-237" font-family="sans" font-size="10.00">make_gvcfs_by_chromo</text>
<text text-anchor="middle" x="131.91" y="-226" font-family="sans" font-size="10.00">chromo: NC_037122.1f5t9</text>
</g>
<!-- 3&#45;&gt;2 -->
<g id="edge6" class="edge">
<title>3&#45;&gt;2</title>
<path fill="none" stroke="grey" stroke-width="2" d="M197.67,-217.55C241.84,-207.18 300.37,-193.43 347.62,-182.33"/>
<polygon fill="grey" stroke="grey" stroke-width="2" points="348.59,-185.7 357.52,-180 346.99,-178.88 348.59,-185.7"/>
</g>
<!-- 4 -->
<g id="node5" class="node">
<title>4</title>
<path fill="none" stroke="#56c1d8" stroke-width="2" stroke-dasharray="5,2" d="M318.91,-324C318.91,-324 254.91,-324 254.91,-324 248.91,-324 242.91,-318 242.91,-312 242.91,-312 242.91,-300 242.91,-300 242.91,-294 248.91,-288 254.91,-288 254.91,-288 318.91,-288 318.91,-288 324.91,-288 330.91,-294 330.91,-300 330.91,-300 330.91,-312 330.91,-312 330.91,-318 324.91,-324 318.91,-324"/>
<text text-anchor="middle" x="286.91" y="-303.5" font-family="sans" font-size="10.00">mark_duplicates</text>
</g>
<!-- 4&#45;&gt;3 -->
<g id="edge9" class="edge">
<title>4&#45;&gt;3</title>
<path fill="none" stroke="grey" stroke-width="2" d="M248.99,-287.88C227.89,-278.35 201.45,-266.41 179.03,-256.28"/>
<polygon fill="grey" stroke="grey" stroke-width="2" points="180.25,-252.99 169.7,-252.07 177.37,-259.37 180.25,-252.99"/>
</g>
<!-- 20 -->
<g id="node21" class="node">
<title>20</title>
<path fill="none" stroke="#bed856" stroke-width="2" stroke-dasharray="5,2" d="M345.91,-252C345.91,-252 227.91,-252 227.91,-252 221.91,-252 215.91,-246 215.91,-240 215.91,-240 215.91,-228 215.91,-228 215.91,-222 221.91,-216 227.91,-216 227.91,-216 345.91,-216 345.91,-216 351.91,-216 357.91,-222 357.91,-228 357.91,-228 357.91,-240 357.91,-240 357.91,-246 351.91,-252 345.91,-252"/>
<text text-anchor="middle" x="286.91" y="-237" font-family="sans" font-size="10.00">make_gvcfs_by_chromo</text>
<text text-anchor="middle" x="286.91" y="-226" font-family="sans" font-size="10.00">chromo: NC_037123.1f10t14</text>
</g>
<!-- 4&#45;&gt;20 -->
<g id="edge33" class="edge">
<title>4&#45;&gt;20</title>
<path fill="none" stroke="grey" stroke-width="2" d="M286.91,-287.7C286.91,-279.98 286.91,-270.71 286.91,-262.11"/>
<polygon fill="grey" stroke="grey" stroke-width="2" points="290.41,-262.1 286.91,-252.1 283.41,-262.1 290.41,-262.1"/>
</g>
<!-- 5 -->
<g id="node6" class="node">
<title>5</title>
<path fill="none" stroke="#88d856" stroke-width="2" stroke-dasharray="5,2" d="M325.41,-396C325.41,-396 284.41,-396 284.41,-396 278.41,-396 272.41,-390 272.41,-384 272.41,-384 272.41,-372 272.41,-372 272.41,-366 278.41,-360 284.41,-360 284.41,-360 325.41,-360 325.41,-360 331.41,-360 337.41,-366 337.41,-372 337.41,-372 337.41,-384 337.41,-384 337.41,-390 331.41,-396 325.41,-396"/>
<text text-anchor="middle" x="304.91" y="-375.5" font-family="sans" font-size="10.00">map_reads</text>
</g>
<!-- 5&#45;&gt;4 -->
<g id="edge12" class="edge">
<title>5&#45;&gt;4</title>
<path fill="none" stroke="grey" stroke-width="2" d="M300.46,-359.7C298.45,-351.9 296.04,-342.51 293.8,-333.83"/>
<polygon fill="grey" stroke="grey" stroke-width="2" points="297.18,-332.92 291.3,-324.1 290.4,-334.66 297.18,-332.92"/>
</g>
<!-- 6 -->
<g id="node7" class="node">
<title>6</title>
<path fill="none" stroke="#d85656" stroke-width="2" stroke-dasharray="5,2" d="M323.91,-468C323.91,-468 285.91,-468 285.91,-468 279.91,-468 273.91,-462 273.91,-456 273.91,-456 273.91,-444 273.91,-444 273.91,-438 279.91,-432 285.91,-432 285.91,-432 323.91,-432 323.91,-432 329.91,-432 335.91,-438 335.91,-444 335.91,-444 335.91,-456 335.91,-456 335.91,-462 329.91,-468 323.91,-468"/>
<text text-anchor="middle" x="304.91" y="-453" font-family="sans" font-size="10.00">trim_reads</text>
<text text-anchor="middle" x="304.91" y="-442" font-family="sans" font-size="10.00">sample: A</text>
</g>
<!-- 6&#45;&gt;5 -->
<g id="edge13" class="edge">
<title>6&#45;&gt;5</title>
<path fill="none" stroke="grey" stroke-width="2" d="M304.91,-431.7C304.91,-423.98 304.91,-414.71 304.91,-406.11"/>
<polygon fill="grey" stroke="grey" stroke-width="2" points="308.41,-406.1 304.91,-396.1 301.41,-406.1 308.41,-406.1"/>
</g>
<!-- 7 -->
<g id="node8" class="node">
<title>7</title>
<path fill="none" stroke="#56d88a" stroke-width="2" stroke-dasharray="5,2" d="M552.41,-468C552.41,-468 513.41,-468 513.41,-468 507.41,-468 501.41,-462 501.41,-456 501.41,-456 501.41,-444 501.41,-444 501.41,-438 507.41,-432 513.41,-432 513.41,-432 552.41,-432 552.41,-432 558.41,-432 564.41,-438 564.41,-444 564.41,-444 564.41,-456 564.41,-456 564.41,-462 558.41,-468 552.41,-468"/>
<text text-anchor="middle" x="532.91" y="-447.5" font-family="sans" font-size="10.00">bwa_index</text>
</g>
<!-- 7&#45;&gt;5 -->
<g id="edge14" class="edge">
<title>7&#45;&gt;5</title>
<path fill="none" stroke="grey" stroke-width="2" d="M501.26,-435.45C498.12,-434.23 494.96,-433.06 491.91,-432 443.05,-415.01 385.64,-399.36 347.45,-389.54"/>
<polygon fill="grey" stroke="grey" stroke-width="2" points="348.25,-386.13 337.7,-387.05 346.52,-392.92 348.25,-386.13"/>
</g>
<!-- 12 -->
<g id="node13" class="node">
<title>12</title>
<path fill="none" stroke="#88d856" stroke-width="2" stroke-dasharray="5,2" d="M635.41,-396C635.41,-396 594.41,-396 594.41,-396 588.41,-396 582.41,-390 582.41,-384 582.41,-384 582.41,-372 582.41,-372 582.41,-366 588.41,-360 594.41,-360 594.41,-360 635.41,-360 635.41,-360 641.41,-360 647.41,-366 647.41,-372 647.41,-372 647.41,-384 647.41,-384 647.41,-390 641.41,-396 635.41,-396"/>
<text text-anchor="middle" x="614.91" y="-375.5" font-family="sans" font-size="10.00">map_reads</text>
</g>
<!-- 7&#45;&gt;12 -->
<g id="edge20" class="edge">
<title>7&#45;&gt;12</title>
<path fill="none" stroke="grey" stroke-width="2" d="M553.18,-431.7C563.4,-422.97 575.97,-412.24 587.08,-402.75"/>
<polygon fill="grey" stroke="grey" stroke-width="2" points="589.54,-405.26 594.87,-396.1 584.99,-399.94 589.54,-405.26"/>
</g>
<!-- 16 -->
<g id="node17" class="node">
<title>16</title>
<path fill="none" stroke="#88d856" stroke-width="2" stroke-dasharray="5,2" d="M512.41,-396C512.41,-396 471.41,-396 471.41,-396 465.41,-396 459.41,-390 459.41,-384 459.41,-384 459.41,-372 459.41,-372 459.41,-366 465.41,-360 471.41,-360 471.41,-360 512.41,-360 512.41,-360 518.41,-360 524.41,-366 524.41,-372 524.41,-372 524.41,-384 524.41,-384 524.41,-390 518.41,-396 512.41,-396"/>
<text text-anchor="middle" x="491.91" y="-375.5" font-family="sans" font-size="10.00">map_reads</text>
</g>
<!-- 7&#45;&gt;16 -->
<g id="edge26" class="edge">
<title>7&#45;&gt;16</title>
<path fill="none" stroke="grey" stroke-width="2" d="M522.77,-431.7C518.05,-423.64 512.34,-413.89 507.12,-404.98"/>
<polygon fill="grey" stroke="grey" stroke-width="2" points="510,-402.96 501.92,-396.1 503.96,-406.5 510,-402.96"/>
</g>
<!-- 8 -->
<g id="node9" class="node">
<title>8</title>
<path fill="none" stroke="#56d8c1" stroke-width="2" stroke-dasharray="5,2" d="M414.91,-324C414.91,-324 366.91,-324 366.91,-324 360.91,-324 354.91,-318 354.91,-312 354.91,-312 354.91,-300 354.91,-300 354.91,-294 360.91,-288 366.91,-288 366.91,-288 414.91,-288 414.91,-288 420.91,-288 426.91,-294 426.91,-300 426.91,-300 426.91,-312 426.91,-312 426.91,-318 420.91,-324 414.91,-324"/>
<text text-anchor="middle" x="390.91" y="-303.5" font-family="sans" font-size="10.00">genome_dict</text>
</g>
<!-- 8&#45;&gt;1 -->
<g id="edge5" class="edge">
<title>8&#45;&gt;1</title>
<path fill="none" stroke="grey" stroke-width="2" d="M354.67,-291.9C349.75,-290.42 344.74,-289.07 339.91,-288 270.9,-272.74 70.97,-304.73 23.91,-252 -8.06,-216.19 -7.85,-180 23.91,-144 46.37,-118.53 254.98,-102.25 369.86,-95.14"/>
<polygon fill="grey" stroke="grey" stroke-width="2" points="370.23,-98.62 380,-94.52 369.81,-91.63 370.23,-98.62"/>
</g>
<!-- 8&#45;&gt;3 -->
<g id="edge10" class="edge">
<title>8&#45;&gt;3</title>
<path fill="none" stroke="grey" stroke-width="2" d="M354.79,-292.6C349.81,-291 344.74,-289.42 339.91,-288 296.4,-275.22 247.25,-262.62 207.66,-252.91"/>
<polygon fill="grey" stroke="grey" stroke-width="2" points="208.36,-249.47 197.81,-250.5 206.7,-256.27 208.36,-249.47"/>
</g>
<!-- 10 -->
<g id="node11" class="node">
<title>10</title>
<path fill="none" stroke="#bed856" stroke-width="2" stroke-dasharray="5,2" d="M805.41,-252C805.41,-252 698.41,-252 698.41,-252 692.41,-252 686.41,-246 686.41,-240 686.41,-240 686.41,-228 686.41,-228 686.41,-222 692.41,-216 698.41,-216 698.41,-216 805.41,-216 805.41,-216 811.41,-216 817.41,-222 817.41,-228 817.41,-228 817.41,-240 817.41,-240 817.41,-246 811.41,-252 805.41,-252"/>
<text text-anchor="middle" x="751.91" y="-237" font-family="sans" font-size="10.00">make_gvcfs_by_chromo</text>
<text text-anchor="middle" x="751.91" y="-226" font-family="sans" font-size="10.00">chromo: NC_037122.1f5t9</text>
</g>
<!-- 8&#45;&gt;10 -->
<g id="edge16" class="edge">
<title>8&#45;&gt;10</title>
<path fill="none" stroke="grey" stroke-width="2" d="M427.11,-291.36C431.06,-290.12 435.05,-288.97 438.91,-288 539.65,-262.79 570.01,-271.29 676.28,-252.02"/>
<polygon fill="grey" stroke="grey" stroke-width="2" points="676.92,-255.46 686.11,-250.2 675.64,-248.58 676.92,-255.46"/>
</g>
<!-- 14 -->
<g id="node15" class="node">
<title>14</title>
<path fill="none" stroke="#bed856" stroke-width="2" stroke-dasharray="5,2" d="M495.41,-252C495.41,-252 388.41,-252 388.41,-252 382.41,-252 376.41,-246 376.41,-240 376.41,-240 376.41,-228 376.41,-228 376.41,-222 382.41,-216 388.41,-216 388.41,-216 495.41,-216 495.41,-216 501.41,-216 507.41,-222 507.41,-228 507.41,-228 507.41,-240 507.41,-240 507.41,-246 501.41,-252 495.41,-252"/>
<text text-anchor="middle" x="441.91" y="-237" font-family="sans" font-size="10.00">make_gvcfs_by_chromo</text>
<text text-anchor="middle" x="441.91" y="-226" font-family="sans" font-size="10.00">chromo: NC_037122.1f5t9</text>
</g>
<!-- 8&#45;&gt;14 -->
<g id="edge22" class="edge">
<title>8&#45;&gt;14</title>
<path fill="none" stroke="grey" stroke-width="2" d="M403.51,-287.7C409.5,-279.47 416.78,-269.48 423.38,-260.42"/>
<polygon fill="grey" stroke="grey" stroke-width="2" points="426.38,-262.25 429.44,-252.1 420.73,-258.13 426.38,-262.25"/>
</g>
<!-- 18 -->
<g id="node19" class="node">
<title>18</title>
<path fill="none" stroke="#d88d56" stroke-width="2" stroke-dasharray="5,2" d="M652.41,-108C652.41,-108 547.41,-108 547.41,-108 541.41,-108 535.41,-102 535.41,-96 535.41,-96 535.41,-84 535.41,-84 535.41,-78 541.41,-72 547.41,-72 547.41,-72 652.41,-72 652.41,-72 658.41,-72 664.41,-78 664.41,-84 664.41,-84 664.41,-96 664.41,-96 664.41,-102 658.41,-108 652.41,-108"/>
<text text-anchor="middle" x="599.91" y="-87.5" font-family="sans" font-size="10.00">vcf_from_gdb_by_chromo</text>
</g>
<!-- 8&#45;&gt;18 -->
<g id="edge29" class="edge">
<title>8&#45;&gt;18</title>
<path fill="none" stroke="grey" stroke-width="2" d="M354.66,-291.96C349.74,-290.47 344.73,-289.1 339.91,-288 213.37,-259.15 -22.8,-318.43 56.91,-216 186.14,-49.92 311.77,-150.33 517.91,-108 520.25,-107.52 522.63,-107.03 525.03,-106.53"/>
<polygon fill="grey" stroke="grey" stroke-width="2" points="525.92,-109.93 535.01,-104.48 524.51,-103.07 525.92,-109.93"/>
</g>
<!-- 8&#45;&gt;20 -->
<g id="edge34" class="edge">
<title>8&#45;&gt;20</title>
<path fill="none" stroke="grey" stroke-width="2" d="M365.46,-287.88C352.12,-278.89 335.58,-267.76 321.13,-258.03"/>
<polygon fill="grey" stroke="grey" stroke-width="2" points="322.69,-254.87 312.44,-252.19 318.79,-260.68 322.69,-254.87"/>
</g>
<!-- 21 -->
<g id="node22" class="node">
<title>21</title>
<path fill="none" stroke="#bed856" stroke-width="2" stroke-dasharray="5,2" d="M965.91,-252C965.91,-252 847.91,-252 847.91,-252 841.91,-252 835.91,-246 835.91,-240 835.91,-240 835.91,-228 835.91,-228 835.91,-222 841.91,-216 847.91,-216 847.91,-216 965.91,-216 965.91,-216 971.91,-216 977.91,-222 977.91,-228 977.91,-228 977.91,-240 977.91,-240 977.91,-246 971.91,-252 965.91,-252"/>
<text text-anchor="middle" x="906.91" y="-237" font-family="sans" font-size="10.00">make_gvcfs_by_chromo</text>
<text text-anchor="middle" x="906.91" y="-226" font-family="sans" font-size="10.00">chromo: NC_037123.1f10t14</text>
</g>
<!-- 8&#45;&gt;21 -->
<g id="edge37" class="edge">
<title>8&#45;&gt;21</title>
<path fill="none" stroke="grey" stroke-width="2" d="M427.06,-291.13C431.02,-289.93 435.02,-288.85 438.91,-288 607.61,-250.88 655.1,-277.78 825.91,-252 826.01,-251.98 826.11,-251.97 826.21,-251.95"/>
<polygon fill="grey" stroke="grey" stroke-width="2" points="826.56,-255.44 835.87,-250.39 825.44,-248.53 826.56,-255.44"/>
</g>
<!-- 22 -->
<g id="node23" class="node">
<title>22</title>
<path fill="none" stroke="#bed856" stroke-width="2" stroke-dasharray="5,2" d="M655.91,-252C655.91,-252 537.91,-252 537.91,-252 531.91,-252 525.91,-246 525.91,-240 525.91,-240 525.91,-228 525.91,-228 525.91,-222 531.91,-216 537.91,-216 537.91,-216 655.91,-216 655.91,-216 661.91,-216 667.91,-222 667.91,-228 667.91,-228 667.91,-240 667.91,-240 667.91,-246 661.91,-252 655.91,-252"/>
<text text-anchor="middle" x="596.91" y="-237" font-family="sans" font-size="10.00">make_gvcfs_by_chromo</text>
<text text-anchor="middle" x="596.91" y="-226" font-family="sans" font-size="10.00">chromo: NC_037123.1f10t14</text>
</g>
<!-- 8&#45;&gt;22 -->
<g id="edge40" class="edge">
<title>8&#45;&gt;22</title>
<path fill="none" stroke="grey" stroke-width="2" d="M427.05,-292.13C431.05,-290.72 435.06,-289.33 438.91,-288 470.73,-277.03 506.26,-265.08 535.56,-255.31"/>
<polygon fill="grey" stroke="grey" stroke-width="2" points="536.86,-258.57 545.24,-252.09 534.65,-251.93 536.86,-258.57"/>
</g>
<!-- 9 -->
<g id="node10" class="node">
<title>9</title>
<path fill="none" stroke="#59d856" stroke-width="2" stroke-dasharray="5,2" d="M650.41,-324C650.41,-324 597.41,-324 597.41,-324 591.41,-324 585.41,-318 585.41,-312 585.41,-312 585.41,-300 585.41,-300 585.41,-294 591.41,-288 597.41,-288 597.41,-288 650.41,-288 650.41,-288 656.41,-288 662.41,-294 662.41,-300 662.41,-300 662.41,-312 662.41,-312 662.41,-318 656.41,-324 650.41,-324"/>
<text text-anchor="middle" x="623.91" y="-303.5" font-family="sans" font-size="10.00">genome_faidx</text>
</g>
<!-- 9&#45;&gt;1 -->
<g id="edge4" class="edge">
<title>9&#45;&gt;1</title>
<path fill="none" stroke="grey" stroke-width="2" d="M662.69,-295.44C674.29,-292.79 687.07,-290.08 698.91,-288 828.86,-265.21 1068.19,-319.93 986.91,-216 905.09,-111.39 826.35,-173.67 696.91,-144 692.48,-142.99 592.3,-121.94 519.61,-106.68"/>
<polygon fill="grey" stroke="grey" stroke-width="2" points="520.05,-103.2 509.55,-104.57 518.62,-110.05 520.05,-103.2"/>
</g>
<!-- 9&#45;&gt;3 -->
<g id="edge11" class="edge">
<title>9&#45;&gt;3</title>
<path fill="none" stroke="grey" stroke-width="2" d="M585.08,-295.79C572.34,-293 558.07,-290.11 544.91,-288 398.94,-264.59 357.7,-276.21 207.71,-252.01"/>
<polygon fill="grey" stroke="grey" stroke-width="2" points="208.1,-248.53 197.67,-250.36 206.97,-255.44 208.1,-248.53"/>
</g>
<!-- 9&#45;&gt;10 -->
<g id="edge17" class="edge">
<title>9&#45;&gt;10</title>
<path fill="none" stroke="grey" stroke-width="2" d="M655.22,-287.88C672.11,-278.64 693.15,-267.13 711.29,-257.21"/>
<polygon fill="grey" stroke="grey" stroke-width="2" points="713.38,-260.06 720.47,-252.19 710.02,-253.92 713.38,-260.06"/>
</g>
<!-- 9&#45;&gt;14 -->
<g id="edge23" class="edge">
<title>9&#45;&gt;14</title>
<path fill="none" stroke="grey" stroke-width="2" d="M585.31,-290.15C559.25,-280.13 524.49,-266.76 495.72,-255.7"/>
<polygon fill="grey" stroke="grey" stroke-width="2" points="496.8,-252.36 486.21,-252.04 494.29,-258.9 496.8,-252.36"/>
</g>
<!-- 9&#45;&gt;18 -->
<g id="edge28" class="edge">
<title>9&#45;&gt;18</title>
<path fill="none" stroke="grey" stroke-width="2" d="M662.67,-295.35C674.27,-292.7 687.06,-290 698.91,-288 769.68,-276.05 972.06,-305.51 1019.91,-252 1051.9,-216.22 1051.65,-180 1019.91,-144 997.49,-118.58 789.38,-102.28 674.77,-95.15"/>
<polygon fill="grey" stroke="grey" stroke-width="2" points="674.85,-91.65 664.66,-94.53 674.42,-98.64 674.85,-91.65"/>
</g>
<!-- 9&#45;&gt;20 -->
<g id="edge35" class="edge">
<title>9&#45;&gt;20</title>
<path fill="none" stroke="grey" stroke-width="2" d="M585.35,-296.6C572.5,-293.83 558.09,-290.75 544.91,-288 468.98,-272.15 447.59,-268.65 368,-252.22"/>
<polygon fill="grey" stroke="grey" stroke-width="2" points="368.5,-248.74 358,-250.15 367.08,-255.6 368.5,-248.74"/>
</g>
<!-- 9&#45;&gt;21 -->
<g id="edge38" class="edge">
<title>9&#45;&gt;21</title>
<path fill="none" stroke="grey" stroke-width="2" d="M662.66,-295.41C705.06,-284.93 774.16,-267.84 828.06,-254.5"/>
<polygon fill="grey" stroke="grey" stroke-width="2" points="829.07,-257.86 837.93,-252.06 827.38,-251.06 829.07,-257.86"/>
</g>
<!-- 9&#45;&gt;22 -->
<g id="edge41" class="edge">
<title>9&#45;&gt;22</title>
<path fill="none" stroke="grey" stroke-width="2" d="M617.23,-287.7C614.19,-279.81 610.52,-270.3 607.15,-261.55"/>
<polygon fill="grey" stroke="grey" stroke-width="2" points="610.37,-260.17 603.5,-252.1 603.84,-262.69 610.37,-260.17"/>
</g>
<!-- 10&#45;&gt;2 -->
<g id="edge7" class="edge">
<title>10&#45;&gt;2</title>
<path fill="none" stroke="grey" stroke-width="2" d="M686.07,-218.03C682.97,-217.34 679.9,-216.66 676.91,-216 624.93,-204.53 566.72,-192.03 519.87,-182.04"/>
<polygon fill="grey" stroke="grey" stroke-width="2" points="520.56,-178.61 510.05,-179.95 519.1,-185.46 520.56,-178.61"/>
</g>
<!-- 11 -->
<g id="node12" class="node">
<title>11</title>
<path fill="none" stroke="#56c1d8" stroke-width="2" stroke-dasharray="5,2" d="M783.91,-324C783.91,-324 719.91,-324 719.91,-324 713.91,-324 707.91,-318 707.91,-312 707.91,-312 707.91,-300 707.91,-300 707.91,-294 713.91,-288 719.91,-288 719.91,-288 783.91,-288 783.91,-288 789.91,-288 795.91,-294 795.91,-300 795.91,-300 795.91,-312 795.91,-312 795.91,-318 789.91,-324 783.91,-324"/>
<text text-anchor="middle" x="751.91" y="-303.5" font-family="sans" font-size="10.00">mark_duplicates</text>
</g>
<!-- 11&#45;&gt;10 -->
<g id="edge15" class="edge">
<title>11&#45;&gt;10</title>
<path fill="none" stroke="grey" stroke-width="2" d="M751.91,-287.7C751.91,-279.98 751.91,-270.71 751.91,-262.11"/>
<polygon fill="grey" stroke="grey" stroke-width="2" points="755.41,-262.1 751.91,-252.1 748.41,-262.1 755.41,-262.1"/>
</g>
<!-- 11&#45;&gt;21 -->
<g id="edge36" class="edge">
<title>11&#45;&gt;21</title>
<path fill="none" stroke="grey" stroke-width="2" d="M789.82,-287.88C810.92,-278.35 837.36,-266.41 859.78,-256.28"/>
<polygon fill="grey" stroke="grey" stroke-width="2" points="861.44,-259.37 869.11,-252.07 858.56,-252.99 861.44,-259.37"/>
</g>
<!-- 12&#45;&gt;11 -->
<g id="edge18" class="edge">
<title>12&#45;&gt;11</title>
<path fill="none" stroke="grey" stroke-width="2" d="M647.72,-360.23C666.17,-350.81 689.42,-338.93 709.26,-328.79"/>
<polygon fill="grey" stroke="grey" stroke-width="2" points="711.09,-331.78 718.41,-324.12 707.91,-325.55 711.09,-331.78"/>
</g>
<!-- 13 -->
<g id="node14" class="node">
<title>13</title>
<path fill="none" stroke="#d85656" stroke-width="2" stroke-dasharray="5,2" d="M633.91,-468C633.91,-468 595.91,-468 595.91,-468 589.91,-468 583.91,-462 583.91,-456 583.91,-456 583.91,-444 583.91,-444 583.91,-438 589.91,-432 595.91,-432 595.91,-432 633.91,-432 633.91,-432 639.91,-432 645.91,-438 645.91,-444 645.91,-444 645.91,-456 645.91,-456 645.91,-462 639.91,-468 633.91,-468"/>
<text text-anchor="middle" x="614.91" y="-453" font-family="sans" font-size="10.00">trim_reads</text>
<text text-anchor="middle" x="614.91" y="-442" font-family="sans" font-size="10.00">sample: B</text>
</g>
<!-- 13&#45;&gt;12 -->
<g id="edge19" class="edge">
<title>13&#45;&gt;12</title>
<path fill="none" stroke="grey" stroke-width="2" d="M614.91,-431.7C614.91,-423.98 614.91,-414.71 614.91,-406.11"/>
<polygon fill="grey" stroke="grey" stroke-width="2" points="618.41,-406.1 614.91,-396.1 611.41,-406.1 618.41,-406.1"/>
</g>
<!-- 14&#45;&gt;2 -->
<g id="edge8" class="edge">
<title>14&#45;&gt;2</title>
<path fill="none" stroke="grey" stroke-width="2" d="M438.94,-215.7C437.62,-207.98 436.03,-198.71 434.55,-190.11"/>
<polygon fill="grey" stroke="grey" stroke-width="2" points="437.98,-189.37 432.84,-180.1 431.08,-190.55 437.98,-189.37"/>
</g>
<!-- 15 -->
<g id="node16" class="node">
<title>15</title>
<path fill="none" stroke="#56c1d8" stroke-width="2" stroke-dasharray="5,2" d="M523.91,-324C523.91,-324 459.91,-324 459.91,-324 453.91,-324 447.91,-318 447.91,-312 447.91,-312 447.91,-300 447.91,-300 447.91,-294 453.91,-288 459.91,-288 459.91,-288 523.91,-288 523.91,-288 529.91,-288 535.91,-294 535.91,-300 535.91,-300 535.91,-312 535.91,-312 535.91,-318 529.91,-324 523.91,-324"/>
<text text-anchor="middle" x="491.91" y="-303.5" font-family="sans" font-size="10.00">mark_duplicates</text>
</g>
<!-- 15&#45;&gt;14 -->
<g id="edge21" class="edge">
<title>15&#45;&gt;14</title>
<path fill="none" stroke="grey" stroke-width="2" d="M479.55,-287.7C473.67,-279.47 466.54,-269.48 460.06,-260.42"/>
<polygon fill="grey" stroke="grey" stroke-width="2" points="462.78,-258.21 454.12,-252.1 457.09,-262.28 462.78,-258.21"/>
</g>
<!-- 15&#45;&gt;22 -->
<g id="edge39" class="edge">
<title>15&#45;&gt;22</title>
<path fill="none" stroke="grey" stroke-width="2" d="M517.59,-287.88C531.19,-278.81 548.08,-267.55 562.77,-257.76"/>
<polygon fill="grey" stroke="grey" stroke-width="2" points="564.74,-260.65 571.12,-252.19 560.86,-254.82 564.74,-260.65"/>
</g>
<!-- 16&#45;&gt;15 -->
<g id="edge24" class="edge">
<title>16&#45;&gt;15</title>
<path fill="none" stroke="grey" stroke-width="2" d="M491.91,-359.7C491.91,-351.98 491.91,-342.71 491.91,-334.11"/>
<polygon fill="grey" stroke="grey" stroke-width="2" points="495.41,-334.1 491.91,-324.1 488.41,-334.1 495.41,-334.1"/>
</g>
<!-- 17 -->
<g id="node18" class="node">
<title>17</title>
<path fill="none" stroke="#d85656" stroke-width="2" stroke-dasharray="5,2" d="M470.91,-468C470.91,-468 432.91,-468 432.91,-468 426.91,-468 420.91,-462 420.91,-456 420.91,-456 420.91,-444 420.91,-444 420.91,-438 426.91,-432 432.91,-432 432.91,-432 470.91,-432 470.91,-432 476.91,-432 482.91,-438 482.91,-444 482.91,-444 482.91,-456 482.91,-456 482.91,-462 476.91,-468 470.91,-468"/>
<text text-anchor="middle" x="451.91" y="-453" font-family="sans" font-size="10.00">trim_reads</text>
<text text-anchor="middle" x="451.91" y="-442" font-family="sans" font-size="10.00">sample: C</text>
</g>
<!-- 17&#45;&gt;16 -->
<g id="edge25" class="edge">
<title>17&#45;&gt;16</title>
<path fill="none" stroke="grey" stroke-width="2" d="M461.79,-431.7C466.4,-423.64 471.97,-413.89 477.06,-404.98"/>
<polygon fill="grey" stroke="grey" stroke-width="2" points="480.21,-406.52 482.13,-396.1 474.13,-403.05 480.21,-406.52"/>
</g>
<!-- 18&#45;&gt;0 -->
<g id="edge2" class="edge">
<title>18&#45;&gt;0</title>
<path fill="none" stroke="grey" stroke-width="2" d="M579.64,-71.7C569.41,-62.97 556.84,-52.24 545.73,-42.75"/>
<polygon fill="grey" stroke="grey" stroke-width="2" points="547.82,-39.94 537.94,-36.1 543.28,-45.26 547.82,-39.94"/>
</g>
<!-- 19 -->
<g id="node20" class="node">
<title>19</title>
<path fill="none" stroke="#568ad8" stroke-width="2" stroke-dasharray="5,2" d="M675.91,-180C675.91,-180 539.91,-180 539.91,-180 533.91,-180 527.91,-174 527.91,-168 527.91,-168 527.91,-156 527.91,-156 527.91,-150 533.91,-144 539.91,-144 539.91,-144 675.91,-144 675.91,-144 681.91,-144 687.91,-150 687.91,-156 687.91,-156 687.91,-168 687.91,-168 687.91,-174 681.91,-180 675.91,-180"/>
<text text-anchor="middle" x="607.91" y="-159.5" font-family="sans" font-size="10.00">import_genomics_db_by_chromo</text>
</g>
<!-- 19&#45;&gt;18 -->
<g id="edge27" class="edge">
<title>19&#45;&gt;18</title>
<path fill="none" stroke="grey" stroke-width="2" d="M605.93,-143.7C605.05,-135.98 603.99,-126.71 603,-118.11"/>
<polygon fill="grey" stroke="grey" stroke-width="2" points="606.47,-117.64 601.86,-108.1 599.52,-118.44 606.47,-117.64"/>
</g>
<!-- 20&#45;&gt;19 -->
<g id="edge30" class="edge">
<title>20&#45;&gt;19</title>
<path fill="none" stroke="grey" stroke-width="2" d="M358.15,-217.46C405.85,-207.06 468.98,-193.29 519.84,-182.2"/>
<polygon fill="grey" stroke="grey" stroke-width="2" points="520.81,-185.57 529.84,-180.02 519.32,-178.73 520.81,-185.57"/>
</g>
<!-- 21&#45;&gt;19 -->
<g id="edge31" class="edge">
<title>21&#45;&gt;19</title>
<path fill="none" stroke="grey" stroke-width="2" d="M835.67,-216.32C792.06,-206.11 736.07,-193.01 690.52,-182.34"/>
<polygon fill="grey" stroke="grey" stroke-width="2" points="691.21,-178.91 680.68,-180.04 689.61,-185.72 691.21,-178.91"/>
</g>
<!-- 22&#45;&gt;19 -->
<g id="edge32" class="edge">
<title>22&#45;&gt;19</title>
<path fill="none" stroke="grey" stroke-width="2" d="M599.62,-215.7C600.84,-207.98 602.29,-198.71 603.65,-190.11"/>
<polygon fill="grey" stroke="grey" stroke-width="2" points="607.12,-190.53 605.22,-180.1 600.21,-189.44 607.12,-190.53"/>
</g>
</g>
</svg>
