<?xml version="1.0" encoding="UTF-8" standalone="no"?>
<!DOCTYPE svg PUBLIC "-//W3C//DTD SVG 1.1//EN"
 "http://www.w3.org/Graphics/SVG/1.1/DTD/svg11.dtd">
<!-- Generated by graphviz version 2.50.0 (0)
 -->
<!-- Title: snakemake_dag Pages: 1 -->
<svg width="623pt" height="1472pt"
 viewBox="0.00 0.00 623.00 1472.00" xmlns="http://www.w3.org/2000/svg" xmlns:xlink="http://www.w3.org/1999/xlink">
<g id="graph0" class="graph" transform="scale(1 1) rotate(0) translate(4 1468)">
<title>snakemake_dag</title>
<polygon fill="white" stroke="transparent" points="-4,4 -4,-1468 619,-1468 619,4 -4,4"/>
<!-- 0 -->
<g id="node1" class="node">
<title>0</title>
<text text-anchor="start" x="244.5" y="-111.6" font-family="sans" font-weight="bold" font-size="18.00">concat_vcfs</text>
<text text-anchor="start" x="163.5" y="-87.8" font-family="sans" font-size="10.00"> </text>
<text text-anchor="start" x="167.5" y="-87.8" font-family="sans" font-weight="bold" font-size="14.00">↪ input</text>
<text text-anchor="start" x="219.5" y="-87.8" font-family="sans" font-size="10.00"> </text>
<text text-anchor="start" x="163.5" y="-68" font-family="monospace" font-size="10.00">results/chromo_vcfs/NC_037122.1f5t9.vcf.gz</text>
<text text-anchor="start" x="163.5" y="-50" font-family="monospace" font-size="10.00">results/chromo_vcfs/NC_037123.1f10t14.vcf.gz</text>
<text text-anchor="start" x="359.5" y="-29.8" font-family="sans" font-size="10.00"> </text>
<text text-anchor="start" x="363.5" y="-29.8" font-family="sans" font-weight="bold" font-size="14.00">output →</text>
<text text-anchor="start" x="424.5" y="-29.8" font-family="sans" font-size="10.00"> </text>
<text text-anchor="start" x="163.5" y="-10" font-family="monospace" font-size="10.00">results/vcf/all.vcf.gz</text>
<polygon fill="#d9bf57" stroke="#d9bf57" points="157.5,-102 157.5,-102 435.5,-102 435.5,-102 157.5,-102"/>
<polygon fill="#d9bf57" stroke="#d9bf57" points="157.5,-44 157.5,-44 435.5,-44 435.5,-44 157.5,-44"/>
<polygon fill="none" stroke="#d9bf57" stroke-width="2" points="157,-1 157,-131 434,-131 434,-1 157,-1"/>
</g>
<!-- 1 -->
<g id="node2" class="node">
<title>1</title>
<text text-anchor="start" x="183" y="-333.6" font-family="sans" font-weight="bold" font-size="18.00">vcf_from_gdb_by_chromo</text>
<text text-anchor="start" x="178.5" y="-309.8" font-family="sans" font-size="10.00"> </text>
<text text-anchor="start" x="182.5" y="-309.8" font-family="sans" font-weight="bold" font-size="14.00">↪ input</text>
<text text-anchor="start" x="234.5" y="-309.8" font-family="sans" font-size="10.00"> </text>
<text text-anchor="start" x="178.5" y="-290" font-family="monospace" font-size="10.00">resources/genome.dict</text>
<text text-anchor="start" x="178.5" y="-272" font-family="monospace" font-size="10.00">resources/genome.fasta</text>
<text text-anchor="start" x="178.5" y="-254" font-family="monospace" font-size="10.00">resources/genome.fasta.fai</text>
<text text-anchor="start" x="178.5" y="-236" font-family="monospace" font-size="10.00">results/genomics_db/{chromo}</text>
<text text-anchor="start" x="344.5" y="-215.8" font-family="sans" font-size="10.00"> </text>
<text text-anchor="start" x="348.5" y="-215.8" font-family="sans" font-weight="bold" font-size="14.00">output →</text>
<text text-anchor="start" x="409.5" y="-215.8" font-family="sans" font-size="10.00"> </text>
<text text-anchor="start" x="178.5" y="-196" font-family="monospace" font-size="10.00">results/chromo_vcfs/{chromo}.vcf.gz</text>
<text text-anchor="start" x="178.5" y="-178" font-family="monospace" font-size="10.00">results/chromo_vcfs/{chromo}.vcf.gz.tbi</text>
<polygon fill="#8bd957" stroke="#8bd957" points="172.5,-324 172.5,-324 420.5,-324 420.5,-324 172.5,-324"/>
<polygon fill="#8bd957" stroke="#8bd957" points="172.5,-230 172.5,-230 420.5,-230 420.5,-230 172.5,-230"/>
<polygon fill="none" stroke="#8bd957" stroke-width="2" points="172,-169 172,-353 419,-353 419,-169 172,-169"/>
</g>
<!-- 1&#45;&gt;0 -->
<g id="edge1" class="edge">
<title>1&#45;&gt;0</title>
<path fill="none" stroke="grey" stroke-width="2" d="M295.5,-167.74C295.5,-159.2 295.5,-150.61 295.5,-142.24"/>
<polygon fill="grey" stroke="grey" stroke-width="2" points="299,-142.17 295.5,-132.17 292,-142.17 299,-142.17"/>
</g>
<!-- 2 -->
<g id="node3" class="node">
<title>2</title>
<text text-anchor="start" x="151.5" y="-519.6" font-family="sans" font-weight="bold" font-size="18.00">import_genomics_db_by_chromo</text>
<text text-anchor="start" x="151.5" y="-495.8" font-family="sans" font-size="10.00"> </text>
<text text-anchor="start" x="155.5" y="-495.8" font-family="sans" font-weight="bold" font-size="14.00">↪ input</text>
<text text-anchor="start" x="207.5" y="-495.8" font-family="sans" font-size="10.00"> </text>
<text text-anchor="start" x="151.5" y="-476" font-family="monospace" font-size="10.00">results/gvcf/{chromo}/A.g.vcf.gz</text>
<text text-anchor="start" x="151.5" y="-458" font-family="monospace" font-size="10.00">results/gvcf/{chromo}/B.g.vcf.gz</text>
<text text-anchor="start" x="151.5" y="-440" font-family="monospace" font-size="10.00">results/gvcf/{chromo}/C.g.vcf.gz</text>
<text text-anchor="start" x="371.5" y="-419.8" font-family="sans" font-size="10.00"> </text>
<text text-anchor="start" x="375.5" y="-419.8" font-family="sans" font-weight="bold" font-size="14.00">output →</text>
<text text-anchor="start" x="436.5" y="-419.8" font-family="sans" font-size="10.00"> </text>
<text text-anchor="start" x="151.5" y="-400" font-family="monospace" font-size="10.00">results/genomics_db/{chromo}</text>
<polygon fill="#bfd957" stroke="#bfd957" points="145.5,-510 145.5,-510 447.5,-510 447.5,-510 145.5,-510"/>
<polygon fill="#bfd957" stroke="#bfd957" points="145.5,-434 145.5,-434 447.5,-434 447.5,-434 145.5,-434"/>
<polygon fill="none" stroke="#bfd957" stroke-width="2" points="145,-391 145,-539 446,-539 446,-391 145,-391"/>
</g>
<!-- 2&#45;&gt;1 -->
<g id="edge2" class="edge">
<title>2&#45;&gt;1</title>
<path fill="none" stroke="grey" stroke-width="2" d="M295.5,-389.93C295.5,-381.59 295.5,-372.99 295.5,-364.38"/>
<polygon fill="grey" stroke="grey" stroke-width="2" points="299,-364.28 295.5,-354.28 292,-364.28 299,-364.28"/>
</g>
<!-- 3 -->
<g id="node4" class="node">
<title>3</title>
<text text-anchor="start" x="192" y="-759.6" font-family="sans" font-weight="bold" font-size="18.00">make_gvcfs_by_chromo</text>
<text text-anchor="start" x="166.5" y="-735.8" font-family="sans" font-size="10.00"> </text>
<text text-anchor="start" x="170.5" y="-735.8" font-family="sans" font-weight="bold" font-size="14.00">↪ input</text>
<text text-anchor="start" x="222.5" y="-735.8" font-family="sans" font-size="10.00"> </text>
<text text-anchor="start" x="166.5" y="-716" font-family="monospace" font-size="10.00">resources/genome.dict</text>
<text text-anchor="start" x="166.5" y="-698" font-family="monospace" font-size="10.00">resources/genome.fasta</text>
<text text-anchor="start" x="166.5" y="-680" font-family="monospace" font-size="10.00">resources/genome.fasta.fai</text>
<text text-anchor="start" x="166.5" y="-662" font-family="monospace" font-size="10.00">results/mkdup/{sample}.bai</text>
<text text-anchor="start" x="166.5" y="-644" font-family="monospace" font-size="10.00">results/mkdup/{sample}.bam</text>
<text text-anchor="start" x="356.5" y="-623.8" font-family="sans" font-size="10.00"> </text>
<text text-anchor="start" x="360.5" y="-623.8" font-family="sans" font-weight="bold" font-size="14.00">output →</text>
<text text-anchor="start" x="421.5" y="-623.8" font-family="sans" font-size="10.00"> </text>
<text text-anchor="start" x="166.5" y="-604" font-family="monospace" font-size="10.00">results/gvcf/{chromo}/{sample}.g.vcf.gz</text>
<text text-anchor="start" x="166.5" y="-586" font-family="monospace" font-size="10.00">results/gvcf/{chromo}/{sample}.g.vcf.gz.tbi</text>
<polygon fill="#57d9bf" stroke="#57d9bf" points="160.5,-750 160.5,-750 432.5,-750 432.5,-750 160.5,-750"/>
<polygon fill="#57d9bf" stroke="#57d9bf" points="160.5,-638 160.5,-638 432.5,-638 432.5,-638 160.5,-638"/>
<polygon fill="none" stroke="#57d9bf" stroke-width="2" points="160,-577 160,-779 431,-779 431,-577 160,-577"/>
</g>
<!-- 3&#45;&gt;2 -->
<g id="edge5" class="edge">
<title>3&#45;&gt;2</title>
<path fill="none" stroke="grey" stroke-width="2" d="M295.5,-575.83C295.5,-567.25 295.5,-558.64 295.5,-550.22"/>
<polygon fill="grey" stroke="grey" stroke-width="2" points="299,-550.06 295.5,-540.06 292,-550.06 299,-550.06"/>
</g>
<!-- 4 -->
<g id="node5" class="node">
<title>4</title>
<text text-anchor="start" x="225" y="-945.6" font-family="sans" font-weight="bold" font-size="18.00">mark_duplicates</text>
<text text-anchor="start" x="172.5" y="-921.8" font-family="sans" font-size="10.00"> </text>
<text text-anchor="start" x="176.5" y="-921.8" font-family="sans" font-weight="bold" font-size="14.00">↪ input</text>
<text text-anchor="start" x="228.5" y="-921.8" font-family="sans" font-size="10.00"> </text>
<text text-anchor="start" x="172.5" y="-902" font-family="monospace" font-size="10.00">results/bam/{sample}.bam</text>
<text text-anchor="start" x="350.5" y="-881.8" font-family="sans" font-size="10.00"> </text>
<text text-anchor="start" x="354.5" y="-881.8" font-family="sans" font-weight="bold" font-size="14.00">output →</text>
<text text-anchor="start" x="415.5" y="-881.8" font-family="sans" font-size="10.00"> </text>
<text text-anchor="start" x="172.5" y="-862" font-family="monospace" font-size="10.00">results/mkdup/{sample}.bai</text>
<text text-anchor="start" x="172.5" y="-844" font-family="monospace" font-size="10.00">results/mkdup/{sample}.bam</text>
<text text-anchor="start" x="172.5" y="-826" font-family="monospace" font-size="10.00">results/qc/mkdup_metrics/{sample}.metrics</text>
<polygon fill="#57d957" stroke="#57d957" points="166.5,-936 166.5,-936 426.5,-936 426.5,-936 166.5,-936"/>
<polygon fill="#57d957" stroke="#57d957" points="166.5,-896 166.5,-896 426.5,-896 426.5,-896 166.5,-896"/>
<polygon fill="none" stroke="#57d957" stroke-width="2" points="166,-817 166,-965 425,-965 425,-817 166,-817"/>
</g>
<!-- 4&#45;&gt;3 -->
<g id="edge6" class="edge">
<title>4&#45;&gt;3</title>
<path fill="none" stroke="grey" stroke-width="2" d="M295.5,-815.91C295.5,-807.63 295.5,-799.06 295.5,-790.45"/>
<polygon fill="grey" stroke="grey" stroke-width="2" points="299,-790.32 295.5,-780.32 292,-790.32 299,-790.32"/>
</g>
<!-- 5 -->
<g id="node6" class="node">
<title>5</title>
<text text-anchor="start" x="249" y="-1221.6" font-family="sans" font-weight="bold" font-size="18.00">map_reads</text>
<text text-anchor="start" x="187.5" y="-1197.8" font-family="sans" font-size="10.00"> </text>
<text text-anchor="start" x="191.5" y="-1197.8" font-family="sans" font-weight="bold" font-size="14.00">↪ input</text>
<text text-anchor="start" x="243.5" y="-1197.8" font-family="sans" font-size="10.00"> </text>
<text text-anchor="start" x="187.5" y="-1178" font-family="monospace" font-size="10.00">resources/genome.fasta</text>
<text text-anchor="start" x="187.5" y="-1160" font-family="monospace" font-size="10.00">resources/genome.fasta.0123</text>
<text text-anchor="start" x="187.5" y="-1142" font-family="monospace" font-size="10.00">resources/genome.fasta.amb</text>
<text text-anchor="start" x="187.5" y="-1124" font-family="monospace" font-size="10.00">resources/genome.fasta.ann</text>
<text text-anchor="start" x="187.5" y="-1106" font-family="monospace" font-size="10.00">resources/genome.fasta.bwt.2bit.64</text>
<text text-anchor="start" x="187.5" y="-1088" font-family="monospace" font-size="10.00">resources/genome.fasta.pac</text>
<text text-anchor="start" x="187.5" y="-1070" font-family="monospace" font-size="10.00">results/trimmed/{sample}_R1.fastq.gz</text>
<text text-anchor="start" x="187.5" y="-1052" font-family="monospace" font-size="10.00">results/trimmed/{sample}_R2.fastq.gz</text>
<text text-anchor="start" x="335.5" y="-1031.8" font-family="sans" font-size="10.00"> </text>
<text text-anchor="start" x="339.5" y="-1031.8" font-family="sans" font-weight="bold" font-size="14.00">output →</text>
<text text-anchor="start" x="400.5" y="-1031.8" font-family="sans" font-size="10.00"> </text>
<text text-anchor="start" x="187.5" y="-1012" font-family="monospace" font-size="10.00">results/bam/{sample}.bam</text>
<polygon fill="#57d98b" stroke="#57d98b" points="181.5,-1212 181.5,-1212 411.5,-1212 411.5,-1212 181.5,-1212"/>
<polygon fill="#57d98b" stroke="#57d98b" points="181.5,-1046 181.5,-1046 411.5,-1046 411.5,-1046 181.5,-1046"/>
<polygon fill="none" stroke="#57d98b" stroke-width="2" points="181,-1003 181,-1241 410,-1241 410,-1003 181,-1003"/>
</g>
<!-- 5&#45;&gt;4 -->
<g id="edge9" class="edge">
<title>5&#45;&gt;4</title>
<path fill="none" stroke="grey" stroke-width="2" d="M295.5,-1001.8C295.5,-993.15 295.5,-984.53 295.5,-976.15"/>
<polygon fill="grey" stroke="grey" stroke-width="2" points="299,-976.05 295.5,-966.05 292,-976.05 299,-976.05"/>
</g>
<!-- 6 -->
<g id="node7" class="node">
<title>6</title>
<text text-anchor="start" x="129.5" y="-1443.6" font-family="sans" font-weight="bold" font-size="18.00">trim_reads</text>
<text text-anchor="start" x="66.5" y="-1419.8" font-family="sans" font-size="10.00"> </text>
<text text-anchor="start" x="70.5" y="-1419.8" font-family="sans" font-weight="bold" font-size="14.00">↪ input</text>
<text text-anchor="start" x="122.5" y="-1419.8" font-family="sans" font-size="10.00"> </text>
<text text-anchor="start" x="66.5" y="-1400" font-family="monospace" font-size="10.00">data/{sample}_R1.fastq.gz</text>
<text text-anchor="start" x="66.5" y="-1382" font-family="monospace" font-size="10.00">data/{sample}_R2.fastq.gz</text>
<text text-anchor="start" x="214.5" y="-1361.8" font-family="sans" font-size="10.00"> </text>
<text text-anchor="start" x="218.5" y="-1361.8" font-family="sans" font-weight="bold" font-size="14.00">output →</text>
<text text-anchor="start" x="279.5" y="-1361.8" font-family="sans" font-size="10.00"> </text>
<text text-anchor="start" x="66.5" y="-1342" font-family="monospace" font-size="10.00">results/qc/fastp/{sample}.html</text>
<text text-anchor="start" x="66.5" y="-1324" font-family="monospace" font-size="10.00">results/qc/fastp/{sample}.json</text>
<text text-anchor="start" x="66.5" y="-1306" font-family="monospace" font-size="10.00">results/trimmed/{sample}_R1.fastq.gz</text>
<text text-anchor="start" x="66.5" y="-1288" font-family="monospace" font-size="10.00">results/trimmed/{sample}_R2.fastq.gz</text>
<polygon fill="#d95757" stroke="#d95757" points="60.5,-1434 60.5,-1434 290.5,-1434 290.5,-1434 60.5,-1434"/>
<polygon fill="#d95757" stroke="#d95757" points="60.5,-1376 60.5,-1376 290.5,-1376 290.5,-1376 60.5,-1376"/>
<polygon fill="none" stroke="#d95757" stroke-width="2" points="60,-1279 60,-1463 289,-1463 289,-1279 60,-1279"/>
</g>
<!-- 6&#45;&gt;5 -->
<g id="edge10" class="edge">
<title>6&#45;&gt;5</title>
<path fill="none" stroke="grey" stroke-width="2" d="M219.73,-1277.68C223.91,-1269.13 228.2,-1260.38 232.51,-1251.59"/>
<polygon fill="grey" stroke="grey" stroke-width="2" points="235.74,-1252.94 237,-1242.42 229.46,-1249.86 235.74,-1252.94"/>
</g>
<!-- 7 -->
<g id="node8" class="node">
<title>7</title>
<text text-anchor="start" x="371.5" y="-1443.6" font-family="sans" font-weight="bold" font-size="18.00">bwa_index</text>
<text text-anchor="start" x="315.5" y="-1419.8" font-family="sans" font-size="10.00"> </text>
<text text-anchor="start" x="319.5" y="-1419.8" font-family="sans" font-weight="bold" font-size="14.00">↪ input</text>
<text text-anchor="start" x="371.5" y="-1419.8" font-family="sans" font-size="10.00"> </text>
<text text-anchor="start" x="315.5" y="-1400" font-family="monospace" font-size="10.00">resources/genome.fasta</text>
<text text-anchor="start" x="451.5" y="-1379.8" font-family="sans" font-size="10.00"> </text>
<text text-anchor="start" x="455.5" y="-1379.8" font-family="sans" font-weight="bold" font-size="14.00">output →</text>
<text text-anchor="start" x="516.5" y="-1379.8" font-family="sans" font-size="10.00"> </text>
<text text-anchor="start" x="315.5" y="-1360" font-family="monospace" font-size="10.00">resources/genome.fasta.0123</text>
<text text-anchor="start" x="315.5" y="-1342" font-family="monospace" font-size="10.00">resources/genome.fasta.amb</text>
<text text-anchor="start" x="315.5" y="-1324" font-family="monospace" font-size="10.00">resources/genome.fasta.ann</text>
<text text-anchor="start" x="315.5" y="-1306" font-family="monospace" font-size="10.00">resources/genome.fasta.bwt.2bit.64</text>
<text text-anchor="start" x="315.5" y="-1288" font-family="monospace" font-size="10.00">resources/genome.fasta.pac</text>
<polygon fill="#d98b57" stroke="#d98b57" points="309.5,-1434 309.5,-1434 527.5,-1434 527.5,-1434 309.5,-1434"/>
<polygon fill="#d98b57" stroke="#d98b57" points="309.5,-1394 309.5,-1394 527.5,-1394 527.5,-1394 309.5,-1394"/>
<polygon fill="none" stroke="#d98b57" stroke-width="2" points="309,-1279 309,-1463 526,-1463 526,-1279 309,-1279"/>
</g>
<!-- 7&#45;&gt;5 -->
<g id="edge11" class="edge">
<title>7&#45;&gt;5</title>
<path fill="none" stroke="grey" stroke-width="2" d="M371.9,-1277.68C367.68,-1269.13 363.35,-1260.38 359.01,-1251.59"/>
<polygon fill="grey" stroke="grey" stroke-width="2" points="362.05,-1249.84 354.49,-1242.42 355.78,-1252.94 362.05,-1249.84"/>
</g>
<!-- 8 -->
<g id="node9" class="node">
<title>8</title>
<text text-anchor="start" x="18" y="-927.6" font-family="sans" font-weight="bold" font-size="18.00">genome_dict</text>
<text text-anchor="start" x="7.5" y="-903.8" font-family="sans" font-size="10.00"> </text>
<text text-anchor="start" x="11.5" y="-903.8" font-family="sans" font-weight="bold" font-size="14.00">↪ input</text>
<text text-anchor="start" x="63.5" y="-903.8" font-family="sans" font-size="10.00"> </text>
<text text-anchor="start" x="7.5" y="-884" font-family="monospace" font-size="10.00">resources/genome.fasta</text>
<text text-anchor="start" x="71.5" y="-863.8" font-family="sans" font-size="10.00"> </text>
<text text-anchor="start" x="75.5" y="-863.8" font-family="sans" font-weight="bold" font-size="14.00">output →</text>
<text text-anchor="start" x="136.5" y="-863.8" font-family="sans" font-size="10.00"> </text>
<text text-anchor="start" x="7.5" y="-844" font-family="monospace" font-size="10.00">resources/genome.dict</text>
<polygon fill="#578bd9" stroke="#578bd9" points="1.5,-918 1.5,-918 147.5,-918 147.5,-918 1.5,-918"/>
<polygon fill="#578bd9" stroke="#578bd9" points="1.5,-878 1.5,-878 147.5,-878 147.5,-878 1.5,-878"/>
<polygon fill="none" stroke="#578bd9" stroke-width="2" points="1,-835 1,-947 146,-947 146,-835 1,-835"/>
</g>
<!-- 8&#45;&gt;1 -->
<g id="edge4" class="edge">
<title>8&#45;&gt;1</title>
<path fill="none" stroke="grey" stroke-width="2" d="M67.16,-833.66C58.96,-736.41 54.1,-533.65 134.5,-390 142.37,-375.94 152.47,-362.85 163.77,-350.84"/>
<polygon fill="grey" stroke="grey" stroke-width="2" points="166.46,-353.1 170.95,-343.5 161.45,-348.2 166.46,-353.1"/>
</g>
<!-- 8&#45;&gt;3 -->
<g id="edge8" class="edge">
<title>8&#45;&gt;3</title>
<path fill="none" stroke="grey" stroke-width="2" d="M132.7,-833.73C147.87,-819.31 164.71,-803.31 181.64,-787.22"/>
<polygon fill="grey" stroke="grey" stroke-width="2" points="184.05,-789.75 188.89,-780.33 179.23,-784.68 184.05,-789.75"/>
</g>
<!-- 9 -->
<g id="node10" class="node">
<title>9</title>
<text text-anchor="start" x="469.5" y="-927.6" font-family="sans" font-weight="bold" font-size="18.00">genome_faidx</text>
<text text-anchor="start" x="451.5" y="-903.8" font-family="sans" font-size="10.00"> </text>
<text text-anchor="start" x="455.5" y="-903.8" font-family="sans" font-weight="bold" font-size="14.00">↪ input</text>
<text text-anchor="start" x="507.5" y="-903.8" font-family="sans" font-size="10.00"> </text>
<text text-anchor="start" x="451.5" y="-884" font-family="monospace" font-size="10.00">resources/genome.fasta</text>
<text text-anchor="start" x="539.5" y="-863.8" font-family="sans" font-size="10.00"> </text>
<text text-anchor="start" x="543.5" y="-863.8" font-family="sans" font-weight="bold" font-size="14.00">output →</text>
<text text-anchor="start" x="604.5" y="-863.8" font-family="sans" font-size="10.00"> </text>
<text text-anchor="start" x="451.5" y="-844" font-family="monospace" font-size="10.00">resources/genome.fasta.fai</text>
<polygon fill="#57bfd9" stroke="#57bfd9" points="445.5,-918 445.5,-918 615.5,-918 615.5,-918 445.5,-918"/>
<polygon fill="#57bfd9" stroke="#57bfd9" points="445.5,-878 445.5,-878 615.5,-878 615.5,-878 445.5,-878"/>
<polygon fill="none" stroke="#57bfd9" stroke-width="2" points="445,-835 445,-947 614,-947 614,-835 445,-835"/>
</g>
<!-- 9&#45;&gt;1 -->
<g id="edge3" class="edge">
<title>9&#45;&gt;1</title>
<path fill="none" stroke="grey" stroke-width="2" d="M533.97,-833.96C539.08,-736.72 537.9,-533.42 455.5,-390 447.8,-376.59 438.09,-364.04 427.29,-352.45"/>
<polygon fill="grey" stroke="grey" stroke-width="2" points="429.52,-349.72 420.05,-344.97 424.49,-354.59 429.52,-349.72"/>
</g>
<!-- 9&#45;&gt;3 -->
<g id="edge7" class="edge">
<title>9&#45;&gt;3</title>
<path fill="none" stroke="grey" stroke-width="2" d="M467.1,-833.73C451.11,-819.31 433.36,-803.31 415.52,-787.22"/>
<polygon fill="grey" stroke="grey" stroke-width="2" points="417.64,-784.42 407.87,-780.33 412.95,-789.62 417.64,-784.42"/>
</g>
</g>
</svg>
