<?xml version="1.0" encoding="UTF-8" standalone="no"?>
<!DOCTYPE svg PUBLIC "-//W3C//DTD SVG 1.1//EN"
 "http://www.w3.org/Graphics/SVG/1.1/DTD/svg11.dtd">
<!-- Generated by graphviz version 2.50.0 (0)
 -->
<!-- Title: snakemake_dag Pages: 1 -->
<svg width="368pt" height="548pt"
 viewBox="0.00 0.00 367.50 548.00" xmlns="http://www.w3.org/2000/svg" xmlns:xlink="http://www.w3.org/1999/xlink">
<g id="graph0" class="graph" transform="scale(1 1) rotate(0) translate(4 544)">
<title>snakemake_dag</title>
<polygon fill="white" stroke="transparent" points="-4,4 -4,-544 363.5,-544 363.5,4 -4,4"/>
<!-- 0 -->
<g id="node1" class="node">
<title>0</title>
<path fill="none" stroke="#d85656" stroke-width="2" d="M186.5,-36C186.5,-36 156.5,-36 156.5,-36 150.5,-36 144.5,-30 144.5,-24 144.5,-24 144.5,-12 144.5,-12 144.5,-6 150.5,0 156.5,0 156.5,0 186.5,0 186.5,0 192.5,0 198.5,-6 198.5,-12 198.5,-12 198.5,-24 198.5,-24 198.5,-30 192.5,-36 186.5,-36"/>
<text text-anchor="middle" x="171.5" y="-15.5" font-family="sans" font-size="10.00">all</text>
</g>
<!-- 1 -->
<g id="node2" class="node">
<title>1</title>
<path fill="none" stroke="#567bd8" stroke-width="2" d="M143,-108C143,-108 12,-108 12,-108 6,-108 0,-102 0,-96 0,-96 0,-84 0,-84 0,-78 6,-72 12,-72 12,-72 143,-72 143,-72 149,-72 155,-78 155,-84 155,-84 155,-96 155,-96 155,-102 149,-108 143,-108"/>
<text text-anchor="middle" x="77.5" y="-87.5" font-family="sans" font-size="10.00">summarise_average_fst_values</text>
</g>
<!-- 1&#45;&gt;0 -->
<g id="edge1" class="edge">
<title>1&#45;&gt;0</title>
<path fill="none" stroke="grey" stroke-width="2" d="M100.74,-71.7C112.69,-62.8 127.42,-51.82 140.35,-42.2"/>
<polygon fill="grey" stroke="grey" stroke-width="2" points="142.6,-44.88 148.53,-36.1 138.42,-39.27 142.6,-44.88"/>
</g>
<!-- 2 -->
<g id="node3" class="node">
<title>2</title>
<path fill="none" stroke="#d8a456" stroke-width="2" d="M150,-180C150,-180 43,-180 43,-180 37,-180 31,-174 31,-168 31,-168 31,-156 31,-156 31,-150 37,-144 43,-144 43,-144 150,-144 150,-144 156,-144 162,-150 162,-156 162,-156 162,-168 162,-168 162,-174 156,-180 150,-180"/>
<text text-anchor="middle" x="96.5" y="-159.5" font-family="sans" font-size="10.00">extract_fst_values_winsfs</text>
</g>
<!-- 2&#45;&gt;1 -->
<g id="edge3" class="edge">
<title>2&#45;&gt;1</title>
<path fill="none" stroke="grey" stroke-width="2" d="M91.8,-143.7C89.69,-135.9 87.14,-126.51 84.78,-117.83"/>
<polygon fill="grey" stroke="grey" stroke-width="2" points="88.14,-116.84 82.14,-108.1 81.38,-118.67 88.14,-116.84"/>
</g>
<!-- 3 -->
<g id="node4" class="node">
<title>3</title>
<path fill="none" stroke="#56c9d8" stroke-width="2" d="M221.5,-252C221.5,-252 121.5,-252 121.5,-252 115.5,-252 109.5,-246 109.5,-240 109.5,-240 109.5,-228 109.5,-228 109.5,-222 115.5,-216 121.5,-216 121.5,-216 221.5,-216 221.5,-216 227.5,-216 233.5,-222 233.5,-228 233.5,-228 233.5,-240 233.5,-240 233.5,-246 227.5,-252 221.5,-252"/>
<text text-anchor="middle" x="171.5" y="-231.5" font-family="sans" font-size="10.00">calc_fst_binaries_winsfs</text>
</g>
<!-- 3&#45;&gt;2 -->
<g id="edge4" class="edge">
<title>3&#45;&gt;2</title>
<path fill="none" stroke="grey" stroke-width="2" d="M152.96,-215.7C143.7,-207.05 132.34,-196.45 122.24,-187.03"/>
<polygon fill="grey" stroke="grey" stroke-width="2" points="124.52,-184.37 114.83,-180.1 119.75,-189.49 124.52,-184.37"/>
</g>
<!-- 10 -->
<g id="node11" class="node">
<title>10</title>
<path fill="none" stroke="#59d856" stroke-width="2" d="M311,-180C311,-180 202,-180 202,-180 196,-180 190,-174 190,-168 190,-168 190,-156 190,-156 190,-150 196,-144 202,-144 202,-144 311,-144 311,-144 317,-144 323,-150 323,-156 323,-156 323,-168 323,-168 323,-174 317,-180 311,-180"/>
<text text-anchor="middle" x="256.5" y="-159.5" font-family="sans" font-size="10.00">sliding_window_fst_winsfs</text>
</g>
<!-- 3&#45;&gt;10 -->
<g id="edge12" class="edge">
<title>3&#45;&gt;10</title>
<path fill="none" stroke="grey" stroke-width="2" d="M192.51,-215.7C203.22,-206.88 216.39,-196.03 228,-186.47"/>
<polygon fill="grey" stroke="grey" stroke-width="2" points="230.24,-189.16 235.73,-180.1 225.79,-183.76 230.24,-189.16"/>
</g>
<!-- 4 -->
<g id="node5" class="node">
<title>4</title>
<path fill="none" stroke="#c6d856" stroke-width="2" d="M194.5,-468C194.5,-468 164.5,-468 164.5,-468 158.5,-468 152.5,-462 152.5,-456 152.5,-456 152.5,-444 152.5,-444 152.5,-438 158.5,-432 164.5,-432 164.5,-432 194.5,-432 194.5,-432 200.5,-432 206.5,-438 206.5,-444 206.5,-444 206.5,-456 206.5,-456 206.5,-462 200.5,-468 194.5,-468"/>
<text text-anchor="middle" x="179.5" y="-447.5" font-family="sans" font-size="10.00">calc_saf</text>
</g>
<!-- 4&#45;&gt;3 -->
<g id="edge5" class="edge">
<title>4&#45;&gt;3</title>
<path fill="none" stroke="grey" stroke-width="2" d="M171.61,-431.75C167.39,-421.58 162.64,-408.33 160.5,-396 152.4,-349.38 159.77,-294.19 165.73,-262.04"/>
<polygon fill="grey" stroke="grey" stroke-width="2" points="169.2,-262.54 167.67,-252.06 162.33,-261.21 169.2,-262.54"/>
</g>
<!-- 8 -->
<g id="node9" class="node">
<title>8</title>
<path fill="none" stroke="#56d87b" stroke-width="2" d="M255.5,-396C255.5,-396 181.5,-396 181.5,-396 175.5,-396 169.5,-390 169.5,-384 169.5,-384 169.5,-372 169.5,-372 169.5,-366 175.5,-360 181.5,-360 181.5,-360 255.5,-360 255.5,-360 261.5,-360 267.5,-366 267.5,-372 267.5,-372 267.5,-384 267.5,-384 267.5,-390 261.5,-396 255.5,-396"/>
<text text-anchor="middle" x="218.5" y="-375.5" font-family="sans" font-size="10.00">calc_2dsfs_winsfs</text>
</g>
<!-- 4&#45;&gt;8 -->
<g id="edge10" class="edge">
<title>4&#45;&gt;8</title>
<path fill="none" stroke="grey" stroke-width="2" d="M189.14,-431.7C193.63,-423.64 199.06,-413.89 204.02,-404.98"/>
<polygon fill="grey" stroke="grey" stroke-width="2" points="207.16,-406.54 208.97,-396.1 201.05,-403.14 207.16,-406.54"/>
</g>
<!-- 5 -->
<g id="node6" class="node">
<title>5</title>
<path fill="none" stroke="#78d856" stroke-width="2" d="M155,-540C155,-540 112,-540 112,-540 106,-540 100,-534 100,-528 100,-528 100,-516 100,-516 100,-510 106,-504 112,-504 112,-504 155,-504 155,-504 161,-504 167,-510 167,-516 167,-516 167,-528 167,-528 167,-534 161,-540 155,-540"/>
<text text-anchor="middle" x="133.5" y="-519.5" font-family="sans" font-size="10.00">index_fasta</text>
</g>
<!-- 5&#45;&gt;4 -->
<g id="edge8" class="edge">
<title>5&#45;&gt;4</title>
<path fill="none" stroke="grey" stroke-width="2" d="M144.87,-503.7C150.22,-495.56 156.7,-485.69 162.61,-476.7"/>
<polygon fill="grey" stroke="grey" stroke-width="2" points="165.69,-478.38 168.26,-468.1 159.84,-474.54 165.69,-478.38"/>
</g>
<!-- 6 -->
<g id="node7" class="node">
<title>6</title>
<path fill="none" stroke="#d8c356" stroke-width="2" d="M256,-540C256,-540 197,-540 197,-540 191,-540 185,-534 185,-528 185,-528 185,-516 185,-516 185,-510 191,-504 197,-504 197,-504 256,-504 256,-504 262,-504 268,-510 268,-516 268,-516 268,-528 268,-528 268,-534 262,-540 256,-540"/>
<text text-anchor="middle" x="226.5" y="-519.5" font-family="sans" font-size="10.00">make_bamlists</text>
</g>
<!-- 6&#45;&gt;4 -->
<g id="edge7" class="edge">
<title>6&#45;&gt;4</title>
<path fill="none" stroke="grey" stroke-width="2" d="M214.88,-503.7C209.36,-495.47 202.65,-485.48 196.57,-476.42"/>
<polygon fill="grey" stroke="grey" stroke-width="2" points="199.46,-474.46 190.98,-468.1 193.65,-478.36 199.46,-474.46"/>
</g>
<!-- 7 -->
<g id="node8" class="node">
<title>7</title>
<path fill="none" stroke="#56a2d8" stroke-width="2" d="M231.5,-324C231.5,-324 189.5,-324 189.5,-324 183.5,-324 177.5,-318 177.5,-312 177.5,-312 177.5,-300 177.5,-300 177.5,-294 183.5,-288 189.5,-288 189.5,-288 231.5,-288 231.5,-288 237.5,-288 243.5,-294 243.5,-300 243.5,-300 243.5,-312 243.5,-312 243.5,-318 237.5,-324 231.5,-324"/>
<text text-anchor="middle" x="210.5" y="-303.5" font-family="sans" font-size="10.00">fold_winsfs</text>
</g>
<!-- 7&#45;&gt;3 -->
<g id="edge6" class="edge">
<title>7&#45;&gt;3</title>
<path fill="none" stroke="grey" stroke-width="2" d="M200.86,-287.7C196.37,-279.64 190.94,-269.89 185.98,-260.98"/>
<polygon fill="grey" stroke="grey" stroke-width="2" points="188.95,-259.14 181.03,-252.1 182.84,-262.54 188.95,-259.14"/>
</g>
<!-- 8&#45;&gt;7 -->
<g id="edge9" class="edge">
<title>8&#45;&gt;7</title>
<path fill="none" stroke="grey" stroke-width="2" d="M216.52,-359.7C215.64,-351.98 214.58,-342.71 213.6,-334.11"/>
<polygon fill="grey" stroke="grey" stroke-width="2" points="217.07,-333.64 212.45,-324.1 210.11,-334.44 217.07,-333.64"/>
</g>
<!-- 9 -->
<g id="node10" class="node">
<title>9</title>
<path fill="none" stroke="#56d8a2" stroke-width="2" d="M347.5,-108C347.5,-108 185.5,-108 185.5,-108 179.5,-108 173.5,-102 173.5,-96 173.5,-96 173.5,-84 173.5,-84 173.5,-78 179.5,-72 185.5,-72 185.5,-72 347.5,-72 347.5,-72 353.5,-72 359.5,-78 359.5,-84 359.5,-84 359.5,-96 359.5,-96 359.5,-102 353.5,-108 347.5,-108"/>
<text text-anchor="middle" x="266.5" y="-87.5" font-family="sans" font-size="10.00">summarise_sliding_window_fst_values</text>
</g>
<!-- 9&#45;&gt;0 -->
<g id="edge2" class="edge">
<title>9&#45;&gt;0</title>
<path fill="none" stroke="grey" stroke-width="2" d="M243.02,-71.7C230.94,-62.8 216.05,-51.82 202.98,-42.2"/>
<polygon fill="grey" stroke="grey" stroke-width="2" points="204.84,-39.22 194.71,-36.1 200.69,-44.85 204.84,-39.22"/>
</g>
<!-- 10&#45;&gt;9 -->
<g id="edge11" class="edge">
<title>10&#45;&gt;9</title>
<path fill="none" stroke="grey" stroke-width="2" d="M258.97,-143.7C260.07,-135.98 261.4,-126.71 262.63,-118.11"/>
<polygon fill="grey" stroke="grey" stroke-width="2" points="266.11,-118.5 264.06,-108.1 259.18,-117.51 266.11,-118.5"/>
</g>
</g>
</svg>
